<svg width="42" height="42" viewBox="0 0 42 42" fill="none" xmlns="http://www.w3.org/2000/svg">
<g clip-path="url(#clip0_1688_873)">
<path d="M36 0H6C2.68629 0 0 2.68629 0 6V36C0 39.3137 2.6863 42 6 42H36C39.3137 42 42 39.3137 42 36V6C42 2.68629 39.3137 0 36 0Z" fill="url(#paint0_linear_1688_873)"/>
<path d="M28.5598 26.4601C29.0054 26.4601 29.4327 26.2831 29.7478 25.9681C30.0628 25.653 30.2398 25.2257 30.2398 24.7801C30.2398 24.3345 30.0628 23.9072 29.7478 23.5922C29.4327 23.2771 29.0054 23.1001 28.5598 23.1001V18.9001C30.1193 18.9001 31.6149 19.5196 32.7176 20.6223C33.8203 21.725 34.4398 23.2206 34.4398 24.7801C34.4398 26.3396 33.8203 27.8352 32.7176 28.9379C31.6149 30.0406 30.1193 30.6601 28.5598 30.6601V26.4601ZM28.5598 30.6601H27.8229C28.2952 30.0748 28.555 29.3466 28.5598 28.5945V30.6601ZM21.8398 28.5601C21.8398 28.1448 21.963 27.7388 22.1938 27.3934C22.4245 27.0481 22.7525 26.7789 23.1362 26.62C23.5199 26.461 23.9422 26.4194 24.3495 26.5005C24.7569 26.5815 25.1311 26.7815 25.4248 27.0752C25.7185 27.3689 25.9185 27.7431 25.9995 28.1504C26.0805 28.5578 26.0389 28.98 25.88 29.3637C25.721 29.7475 25.4519 30.0754 25.1065 30.3062C24.7612 30.537 24.3552 30.6601 23.9398 30.6601C23.3829 30.6601 22.8487 30.4389 22.4549 30.045C22.0611 29.6512 21.8398 29.1171 21.8398 28.5601V28.5601ZM28.5598 28.5259C28.555 27.7738 28.2952 27.0455 27.8229 26.4601H28.5598V28.5259ZM27.7198 23.1001C26.3633 23.0992 25.0488 22.6295 23.9989 21.7704C22.9491 20.9114 22.2285 19.7158 21.9591 18.3863C21.6898 17.0568 21.8883 15.675 22.5211 14.4751C23.1538 13.2752 24.1819 12.3308 25.4311 11.8021C26.1552 11.4957 26.9336 11.3385 27.7198 11.3401H34.4398V12.1801C34.4398 13.0712 34.0858 13.9259 33.4557 14.556C32.8256 15.1861 31.971 15.5401 31.0798 15.5401H27.7198C27.2743 15.5401 26.847 15.7171 26.5319 16.0322C26.2168 16.3472 26.0398 16.7745 26.0398 17.2201C26.0398 17.6657 26.2168 18.093 26.5319 18.408C26.847 18.7231 27.2743 18.9001 27.7198 18.9001H28.5598V23.1001H27.7198Z" fill="white"/>
<path d="M13.4401 30.6601V26.4601C13.8855 26.4596 14.3125 26.2824 14.6275 25.9675C14.9424 25.6525 15.1196 25.2255 15.1201 24.7801H19.3201C19.3207 25.5524 19.1691 26.3173 18.8739 27.0309C18.5787 27.7446 18.1457 28.393 17.5996 28.9392C17.0535 29.4853 16.4051 29.9184 15.6915 30.2137C14.9779 30.509 14.213 30.6607 13.4407 30.6601H13.4401ZM7.56006 30.6601V29.8201C7.56006 28.929 7.91406 28.0743 8.54418 27.4442C9.1743 26.8141 10.0289 26.4601 10.9201 26.4601H13.4401V30.6601H7.56006ZM15.1201 24.7801V14.7001C15.1201 13.809 15.4741 12.9543 16.1042 12.3242C16.7343 11.6941 17.5889 11.3401 18.4801 11.3401H19.3201V24.7801H15.1201Z" fill="white"/>
</g>
<defs>
<linearGradient id="paint0_linear_1688_873" x1="0" y1="0" x2="42" y2="42" gradientUnits="userSpaceOnUse">
<stop stop-color="#75B1FF"/>
<stop offset="1" stop-color="#056BF1"/>
</linearGradient>
<clipPath id="clip0_1688_873">
<rect width="42" height="42" fill="white"/>
</clipPath>
</defs>
</svg>
