<svg width="137" height="42" viewBox="0 0 137 42" fill="none" xmlns="http://www.w3.org/2000/svg">
<g clip-path="url(#clip0_1688_948)">
<path d="M36 0H6C2.68629 0 0 2.68629 0 6V36C0 39.3137 2.6863 42 6 42H36C39.3137 42 42 39.3137 42 36V6C42 2.68629 39.3137 0 36 0Z" fill="white"/>
<path d="M28.5598 26.4599C29.0054 26.4599 29.4327 26.2829 29.7478 25.9678C30.0628 25.6527 30.2398 25.2254 30.2398 24.7799C30.2398 24.3343 30.0628 23.907 29.7478 23.5919C29.4327 23.2769 29.0054 23.0999 28.5598 23.0999V18.8999C30.1193 18.8999 31.6149 19.5194 32.7176 20.6221C33.8203 21.7248 34.4398 23.2204 34.4398 24.7799C34.4398 26.3393 33.8203 27.8349 32.7176 28.9377C31.6149 30.0404 30.1193 30.6599 28.5598 30.6599V26.4599ZM28.5598 30.6599H27.8229C28.2952 30.0745 28.555 29.3463 28.5598 28.5942V30.6599ZM21.8398 28.5599C21.8398 28.1445 21.963 27.7385 22.1938 27.3932C22.4245 27.0478 22.7525 26.7787 23.1362 26.6197C23.5199 26.4608 23.9422 26.4192 24.3495 26.5002C24.7569 26.5812 25.1311 26.7813 25.4248 27.0749C25.7185 27.3686 25.9185 27.7428 25.9995 28.1502C26.0805 28.5575 26.0389 28.9798 25.88 29.3635C25.721 29.7472 25.4519 30.0752 25.1065 30.306C24.7612 30.5367 24.3552 30.6599 23.9398 30.6599C23.3829 30.6599 22.8487 30.4386 22.4549 30.0448C22.0611 29.651 21.8398 29.1168 21.8398 28.5599V28.5599ZM28.5598 28.5257C28.555 27.7735 28.2952 27.0453 27.8229 26.4599H28.5598V28.5257ZM27.7198 23.0999C26.3633 23.099 25.0488 22.6292 23.9989 21.7702C22.9491 20.9111 22.2285 19.7156 21.9591 18.386C21.6898 17.0565 21.8883 15.6748 22.5211 14.4748C23.1538 13.2749 24.1819 12.3306 25.4311 11.8019C26.1552 11.4954 26.9336 11.3383 27.7198 11.3399H34.4398V12.1799C34.4398 13.071 34.0858 13.9256 33.4557 14.5557C32.8256 15.1859 31.971 15.5399 31.0798 15.5399H27.7198C27.2743 15.5399 26.847 15.7169 26.5319 16.0319C26.2168 16.347 26.0398 16.7743 26.0398 17.2199C26.0398 17.6654 26.2168 18.0927 26.5319 18.4078C26.847 18.7229 27.2743 18.8999 27.7198 18.8999H28.5598V23.0999H27.7198Z" fill="url(#paint0_linear_1688_948)"/>
<path d="M13.4396 30.6598V26.4598C13.885 26.4594 14.312 26.2822 14.627 25.9672C14.9419 25.6523 15.1191 25.2253 15.1196 24.7798H19.3196C19.3203 25.5522 19.1687 26.317 18.8734 27.0307C18.5782 27.7443 18.1452 28.3928 17.5991 28.9389C17.0531 29.4851 16.4047 29.9182 15.691 30.2135C14.9774 30.5088 14.2126 30.6604 13.4402 30.6598H13.4396ZM7.55957 30.6598V29.8198C7.55957 28.9287 7.91357 28.0741 8.54369 27.444C9.17381 26.8138 10.0284 26.4598 10.9196 26.4598H13.4396V30.6598H7.55957ZM15.1196 24.7798V14.6998C15.1196 13.8087 15.4736 12.9541 16.1037 12.324C16.7338 11.6938 17.5884 11.3398 18.4796 11.3398H19.3196V24.7798H15.1196Z" fill="url(#paint1_linear_1688_948)"/>
<path d="M60.0305 12.5998V15.4107H55.7283V27.8819H52.1818V15.4107H47.8799V12.5998H60.0305ZM64.0596 16.8372C64.7338 16.8293 65.4038 16.9432 66.0375 17.1732C66.6155 17.3842 67.1415 17.7169 67.5799 18.1486C68.0225 18.5944 68.3658 19.1288 68.5871 19.7166C68.8379 20.3889 68.9607 21.1022 68.9491 21.8196C68.9516 22.0193 68.9411 22.219 68.9176 22.4174C68.9047 22.5464 68.8654 22.6713 68.8022 22.7845C68.7509 22.8715 68.6712 22.9382 68.5766 22.9733C68.4599 23.0117 68.3374 23.0294 68.2146 23.0257H61.9398C62.0445 23.9345 62.3209 24.5934 62.7689 25.0024C63.2169 25.4114 63.794 25.6158 64.5001 25.6156C64.8305 25.6226 65.16 25.5766 65.4759 25.4795C65.7267 25.3979 65.9705 25.2961 66.2051 25.1754C66.4184 25.0634 66.6144 24.962 66.7931 24.8712C66.9666 24.7815 67.1591 24.7347 67.3544 24.7349C67.4684 24.7283 67.5821 24.7509 67.6849 24.8005C67.7877 24.85 67.8762 24.9249 67.942 25.018L68.8864 26.1823C68.573 26.5476 68.2068 26.864 67.7999 27.1211C67.4248 27.3561 67.0233 27.5462 66.6037 27.6875C66.2047 27.8215 65.7936 27.9163 65.3762 27.9706C64.9882 28.0217 64.5975 28.0479 64.2062 28.0493C63.4745 28.0547 62.7477 27.9286 62.0605 27.677C61.4046 27.4364 60.8074 27.0593 60.3083 26.5705C59.7892 26.0522 59.3853 25.4303 59.1226 24.7455C58.8323 24.0183 58.6872 23.1722 58.6872 22.2072C58.6832 21.5014 58.8095 20.8009 59.0596 20.1408C59.2987 19.5053 59.6626 18.924 60.1299 18.4312C60.6082 17.9326 61.183 17.5365 61.8192 17.2669C62.5283 16.9709 63.291 16.8245 64.0594 16.8371L64.0596 16.8372ZM64.1225 19.0818C63.5 19.0818 63.0138 19.2583 62.6641 19.6115C62.3143 19.9646 62.0834 20.4733 61.9716 21.1376H66.0322C66.0327 20.8826 65.9991 20.6286 65.9325 20.3824C65.8693 20.1444 65.7586 19.9215 65.6072 19.7272C65.4482 19.5281 65.2454 19.3684 65.0145 19.2605C64.7345 19.1341 64.4294 19.073 64.1223 19.0817L64.1225 19.0818ZM70.8165 27.8819V17.005H72.8311C73.0105 16.9985 73.1878 17.046 73.3399 17.1413C73.4815 17.2392 73.5837 17.3842 73.6285 17.5504L73.8065 18.1379C73.9841 17.953 74.1734 17.7796 74.3731 17.6187C74.5699 17.4608 74.7827 17.3237 75.0079 17.2097C75.2418 17.0918 75.4882 17.0004 75.7423 16.937C76.0257 16.8681 76.3164 16.8346 76.608 16.8374C77.2655 16.8374 77.8094 17.0069 78.2396 17.3461C78.6825 17.7026 79.0214 18.1718 79.2206 18.7044C79.3923 18.3819 79.6176 18.091 79.8869 17.8443C80.141 17.6121 80.4272 17.4179 80.7368 17.2675C81.0439 17.1196 81.3682 17.0104 81.7021 16.9423C82.0352 16.873 82.3745 16.8378 82.7147 16.8374C83.2797 16.8275 83.8416 16.9217 84.3725 17.1153C84.8339 17.2864 85.2489 17.5629 85.5844 17.9229C85.9221 18.2978 86.1745 18.7415 86.3241 19.2235C86.4996 19.7887 86.5847 20.3781 86.5761 20.9698V27.8819H83.3237V20.9696C83.3237 19.844 82.841 19.2812 81.8757 19.2812C81.6729 19.2751 81.471 19.3106 81.2824 19.3854C81.0939 19.4603 80.9226 19.5729 80.7792 19.7165C80.4889 20.0067 80.3438 20.4245 80.3438 20.9698V27.8819H77.0909V20.9696C77.0909 20.3473 76.9685 19.9102 76.7236 19.6585C76.4788 19.4068 76.1186 19.2808 75.6429 19.2805C75.353 19.2796 75.067 19.3479 74.8088 19.4798C74.5366 19.6197 74.2872 19.8001 74.0691 20.0147V27.8819H70.8165ZM88.8849 31.3327V17.005H90.8995C91.0789 16.9985 91.2562 17.046 91.4083 17.1413C91.5499 17.2393 91.6521 17.3842 91.6969 17.5504L91.9382 18.3475C92.1457 18.119 92.3721 17.9085 92.615 17.7182C92.8563 17.5295 93.1164 17.3661 93.3912 17.2307C93.6757 17.0914 93.9748 16.9842 94.283 16.9109C94.6252 16.8313 94.9757 16.7926 95.327 16.7955C95.8747 16.7911 96.4151 16.9209 96.9009 17.1735C97.3958 17.4357 97.8232 17.8089 98.1497 18.2639C98.5248 18.7929 98.8035 19.384 98.9729 20.0099C99.1821 20.7734 99.2827 21.5625 99.2719 22.3541C99.2795 23.1226 99.1643 23.8873 98.9309 24.6196C98.7239 25.2735 98.4004 25.8847 97.9761 26.4235C97.5792 26.924 97.078 27.3321 96.5075 27.6193C95.9189 27.9103 95.2698 28.0577 94.6133 28.0494C94.0467 28.0494 93.571 27.9689 93.1863 27.8081C92.804 27.6488 92.4498 27.4292 92.137 27.1578V31.3326L88.8849 31.3327ZM94.1937 19.2814C93.9767 19.2791 93.7602 19.302 93.5484 19.3496C93.3629 19.3925 93.1833 19.4577 93.0133 19.5436C92.8472 19.6287 92.6936 19.7364 92.5569 19.8635C92.4074 20.0029 92.2671 20.1518 92.1369 20.3093V24.9242C92.3527 25.1763 92.6263 25.3724 92.9343 25.4958C93.2227 25.6045 93.5285 25.6596 93.8366 25.6584C94.1228 25.6615 94.406 25.6006 94.6655 25.48C94.9303 25.35 95.1564 25.153 95.3213 24.9084C95.528 24.5972 95.6756 24.2505 95.7568 23.8858C95.8706 23.3836 95.9235 22.8694 95.9142 22.3545C95.9222 21.869 95.88 21.3839 95.7882 20.9071C95.726 20.573 95.6071 20.2519 95.4367 19.9579C95.3085 19.7378 95.1213 19.5579 94.8963 19.4387C94.6778 19.3317 94.4371 19.2777 94.1939 19.2809L94.1937 19.2814ZM104.371 12.1807V27.8819H101.119V12.1807H104.371ZM114.507 27.8819C114.199 27.8819 113.967 27.8399 113.81 27.7559C113.652 27.6719 113.521 27.4971 113.416 27.2315L113.185 26.6337C112.912 26.8644 112.65 27.0672 112.398 27.242C112.152 27.4139 111.89 27.5631 111.617 27.6878C111.342 27.8119 111.053 27.9033 110.756 27.9601C110.422 28.0222 110.083 28.0521 109.744 28.0493C109.285 28.0549 108.829 27.9892 108.39 27.8546C108.009 27.7384 107.657 27.543 107.357 27.2811C107.069 27.0218 106.844 26.6995 106.701 26.3394C106.54 25.9254 106.462 25.484 106.47 25.04C106.477 24.6265 106.577 24.2199 106.764 23.8509C106.96 23.444 107.299 23.074 107.782 22.7407C108.264 22.4075 108.915 22.1286 109.733 21.9042C110.552 21.6797 111.584 21.5675 112.829 21.5675V21.1017C112.829 20.4595 112.698 19.9955 112.435 19.7097C112.173 19.4238 111.801 19.281 111.318 19.2813C110.999 19.2721 110.68 19.3146 110.374 19.4073C110.148 19.4831 109.928 19.5778 109.718 19.6904C109.526 19.7953 109.338 19.8897 109.157 19.9736C108.951 20.0622 108.729 20.1052 108.506 20.0996C108.303 20.1057 108.103 20.0489 107.934 19.9371C107.781 19.8329 107.653 19.6947 107.562 19.5333L106.974 18.5159C107.612 17.9467 108.355 17.5068 109.161 17.2205C109.989 16.9328 110.861 16.7891 111.737 16.7957C112.345 16.7866 112.949 16.8952 113.516 17.1156C114.022 17.314 114.479 17.6179 114.859 18.0071C115.231 18.3965 115.519 18.859 115.703 19.3654C115.904 19.9164 116.004 20.4991 115.997 21.0855V27.8819H114.507ZM110.772 25.8995C111.151 25.9079 111.527 25.8327 111.874 25.6793C112.232 25.5004 112.555 25.2589 112.829 24.9661V23.4764C112.291 23.4669 111.753 23.5094 111.223 23.6033C110.878 23.6636 110.543 23.7704 110.226 23.9208C110.019 24.0147 109.843 24.165 109.718 24.3545C109.624 24.515 109.575 24.6978 109.576 24.8837C109.576 25.2576 109.677 25.5203 109.88 25.672C110.083 25.8236 110.38 25.8995 110.772 25.8995ZM122.125 28.0499C121.659 28.0586 121.195 27.9822 120.756 27.8244C120.381 27.687 120.04 27.4685 119.759 27.1846C119.484 26.8993 119.275 26.5575 119.145 26.183C119 25.7613 118.929 25.3177 118.935 24.8719V19.25H118.012C117.853 19.2534 117.699 19.1951 117.582 19.0875C117.519 19.0254 117.471 18.9506 117.441 18.8683C117.41 18.7859 117.397 18.698 117.403 18.6103V17.3412L119.134 17.0052L119.775 14.3516C119.859 14.016 120.096 13.8482 120.488 13.8482H122.188V17.0262H124.832V19.2498H122.188V24.651C122.179 24.8735 122.244 25.0927 122.371 25.275C122.433 25.3564 122.513 25.4215 122.606 25.4645C122.698 25.5075 122.8 25.5271 122.901 25.5215C123.002 25.5238 123.103 25.5114 123.2 25.4848C123.273 25.4635 123.343 25.4354 123.41 25.4008C123.47 25.3693 123.526 25.3413 123.578 25.3168C123.636 25.2912 123.699 25.2786 123.762 25.28C123.846 25.2759 123.929 25.2999 123.998 25.3483C124.071 25.4091 124.133 25.4818 124.182 25.5633L125.168 27.1051C124.742 27.4232 124.262 27.6629 123.752 27.8131C123.224 27.971 122.676 28.0506 122.125 28.0494V28.0499ZM131.358 16.8377C132.033 16.8298 132.703 16.9437 133.336 17.1737C133.914 17.3847 134.44 17.7174 134.879 18.1491C135.321 18.5949 135.665 19.1293 135.886 19.7171C136.137 20.3894 136.259 21.1027 136.248 21.8201C136.25 22.0198 136.24 22.2195 136.216 22.4179C136.203 22.5469 136.164 22.6718 136.101 22.785C136.05 22.872 135.97 22.9387 135.875 22.9738C135.759 23.0122 135.636 23.0299 135.513 23.0262H129.239C129.344 23.9352 129.62 24.5943 130.067 25.0033C130.515 25.4124 131.092 25.6168 131.799 25.6165C132.129 25.6232 132.459 25.5769 132.774 25.4795C133.025 25.3979 133.269 25.2961 133.504 25.1754C133.717 25.0634 133.913 24.962 134.091 24.8712C134.265 24.7815 134.457 24.7347 134.653 24.7349C134.767 24.7283 134.88 24.7509 134.983 24.8005C135.086 24.85 135.174 24.9249 135.24 25.018L136.185 26.1824C135.872 26.5476 135.506 26.864 135.099 27.1211C134.724 27.3561 134.322 27.5462 133.903 27.6875C133.504 27.8215 133.093 27.9163 132.675 27.9706C132.287 28.0217 131.897 28.0479 131.505 28.0493C130.774 28.0546 130.047 27.9285 129.36 27.6769C128.704 27.4363 128.106 27.0592 127.607 26.5704C127.088 26.0521 126.684 25.4302 126.422 24.7454C126.131 24.0182 125.986 23.1721 125.986 22.2072C125.982 21.5013 126.109 20.8008 126.359 20.1408C126.598 19.5052 126.962 18.9239 127.429 18.4311C127.907 17.9325 128.482 17.5364 129.118 17.2669C129.827 16.9708 130.59 16.8245 131.358 16.8371V16.8377ZM131.421 19.0823C130.799 19.0823 130.313 19.2588 129.963 19.612C129.613 19.9651 129.382 20.4738 129.27 21.1381H133.331C133.331 20.8831 133.298 20.6291 133.231 20.3829C133.168 20.1449 133.057 19.922 132.906 19.7277C132.747 19.5286 132.544 19.3689 132.313 19.261C132.033 19.1345 131.728 19.0731 131.421 19.0817V19.0823Z" fill="white"/>
</g>
<defs>
<linearGradient id="paint0_linear_1688_948" x1="21.8398" y1="11.3398" x2="39.52" y2="22.8703" gradientUnits="userSpaceOnUse">
<stop stop-color="#75B1FF"/>
<stop offset="1" stop-color="#056BF1"/>
</linearGradient>
<linearGradient id="paint1_linear_1688_948" x1="7.55957" y1="11.3398" x2="24.7211" y2="21.786" gradientUnits="userSpaceOnUse">
<stop stop-color="#75B1FF"/>
<stop offset="1" stop-color="#056BF1"/>
</linearGradient>
<clipPath id="clip0_1688_948">
<rect width="136.248" height="42" fill="white"/>
</clipPath>
</defs>
</svg>
