<svg width="1590" height="540" viewBox="0 0 1590 540" fill="none" xmlns="http://www.w3.org/2000/svg">
<g filter="url(#filter0_d_671_33)">
<rect x="120" y="120" width="1350" height="300" rx="12" fill="white"/>
</g>
<rect x="166" y="165" width="4" height="30" fill="url(#paint0_linear_671_33)"/>
<g filter="url(#filter1_d_671_33)">
<circle cx="168" cy="197" r="3" fill="#056BF1"/>
</g>
<circle cx="1178" cy="165" r="6" fill="#FF7043"/>
<circle cx="1006" cy="350" r="4" fill="#056BF1"/>
<circle cx="341" cy="369" r="6" fill="#0BB55C"/>
<circle cx="575" cy="183" r="3" fill="#FFB300"/>
<mask id="mask0_671_33" style="mask-type:alpha" maskUnits="userSpaceOnUse" x="1170" y="120" width="300" height="300">
<rect x="1170" y="120" width="300" height="300" rx="12" fill="white"/>
</mask>
<g mask="url(#mask0_671_33)">
<path fill-rule="evenodd" clip-rule="evenodd" d="M1470 520C1608.07 520 1720 408.071 1720 270C1720 131.929 1608.07 20 1470 20C1331.93 20 1220 131.929 1220 270C1220 408.071 1331.93 520 1470 520ZM1470 420C1552.84 420 1620 352.843 1620 270C1620 187.157 1552.84 120 1470 120C1387.16 120 1320 187.157 1320 270C1320 352.843 1387.16 420 1470 420Z" fill="#F7F8FC"/>
</g>
<rect x="1420" y="340" width="4" height="30" fill="url(#paint1_linear_671_33)"/>
<g filter="url(#filter2_d_671_33)">
<circle cx="1422" cy="372" r="3" fill="#FF7043"/>
</g>
<defs>
<filter id="filter0_d_671_33" x="0" y="0" width="1590" height="540" filterUnits="userSpaceOnUse" color-interpolation-filters="sRGB">
<feFlood flood-opacity="0" result="BackgroundImageFix"/>
<feColorMatrix in="SourceAlpha" type="matrix" values="0 0 0 0 0 0 0 0 0 0 0 0 0 0 0 0 0 0 127 0" result="hardAlpha"/>
<feMorphology radius="20" operator="dilate" in="SourceAlpha" result="effect1_dropShadow_671_33"/>
<feOffset/>
<feGaussianBlur stdDeviation="50"/>
<feComposite in2="hardAlpha" operator="out"/>
<feColorMatrix type="matrix" values="0 0 0 0 0.0569965 0 0 0 0 0.168082 0 0 0 0 0.279167 0 0 0 0.12 0"/>
<feBlend mode="normal" in2="BackgroundImageFix" result="effect1_dropShadow_671_33"/>
<feBlend mode="normal" in="SourceGraphic" in2="effect1_dropShadow_671_33" result="shape"/>
</filter>
<filter id="filter1_d_671_33" x="155" y="184" width="26" height="26" filterUnits="userSpaceOnUse" color-interpolation-filters="sRGB">
<feFlood flood-opacity="0" result="BackgroundImageFix"/>
<feColorMatrix in="SourceAlpha" type="matrix" values="0 0 0 0 0 0 0 0 0 0 0 0 0 0 0 0 0 0 127 0" result="hardAlpha"/>
<feOffset/>
<feGaussianBlur stdDeviation="5"/>
<feComposite in2="hardAlpha" operator="out"/>
<feColorMatrix type="matrix" values="0 0 0 0 0.0196078 0 0 0 0 0.419608 0 0 0 0 0.945098 0 0 0 1 0"/>
<feBlend mode="normal" in2="BackgroundImageFix" result="effect1_dropShadow_671_33"/>
<feBlend mode="normal" in="SourceGraphic" in2="effect1_dropShadow_671_33" result="shape"/>
</filter>
<filter id="filter2_d_671_33" x="1409" y="359" width="26" height="26" filterUnits="userSpaceOnUse" color-interpolation-filters="sRGB">
<feFlood flood-opacity="0" result="BackgroundImageFix"/>
<feColorMatrix in="SourceAlpha" type="matrix" values="0 0 0 0 0 0 0 0 0 0 0 0 0 0 0 0 0 0 127 0" result="hardAlpha"/>
<feOffset/>
<feGaussianBlur stdDeviation="5"/>
<feComposite in2="hardAlpha" operator="out"/>
<feColorMatrix type="matrix" values="0 0 0 0 1 0 0 0 0 0.439216 0 0 0 0 0.262745 0 0 0 1 0"/>
<feBlend mode="normal" in2="BackgroundImageFix" result="effect1_dropShadow_671_33"/>
<feBlend mode="normal" in="SourceGraphic" in2="effect1_dropShadow_671_33" result="shape"/>
</filter>
<linearGradient id="paint0_linear_671_33" x1="168" y1="165" x2="168" y2="195" gradientUnits="userSpaceOnUse">
<stop stop-color="#056BF1" stop-opacity="0"/>
<stop offset="1" stop-color="#056BF1" stop-opacity="0.2"/>
</linearGradient>
<linearGradient id="paint1_linear_671_33" x1="1422" y1="340" x2="1422" y2="370" gradientUnits="userSpaceOnUse">
<stop stop-color="#FF7043" stop-opacity="0"/>
<stop offset="1" stop-color="#FF7043" stop-opacity="0.2"/>
</linearGradient>
</defs>
</svg>
