<svg width="80" height="80" viewBox="0 0 54 54" fill="none" xmlns="http://www.w3.org/2000/svg">
<g filter="url(#filter0_d_556_10239)">
<path d="M27 0C23.0231 0.00430135 19.2103 1.58604 16.3981 4.39815C13.586 7.21026 12.0043 11.0231 12 15C12.75 34.875 41.25 34.8662 42 15C41.9957 11.0231 40.414 7.21026 37.6019 4.39815C34.7897 1.58604 30.9769 0.00430135 27 0V0ZM31.375 10C31.8723 10 32.3492 10.1975 32.7008 10.5492C33.0525 10.9008 33.25 11.3777 33.25 11.875C33.25 12.3723 33.0525 12.8492 32.7008 13.2008C32.3492 13.5525 31.8723 13.75 31.375 13.75C30.8777 13.75 30.4008 13.5525 30.0492 13.2008C29.6975 12.8492 29.5 12.3723 29.5 11.875C29.5 11.3777 29.6975 10.9008 30.0492 10.5492C30.4008 10.1975 30.8777 10 31.375 10ZM22.625 10C23.1223 10 23.5992 10.1975 23.9508 10.5492C24.3025 10.9008 24.5 11.3777 24.5 11.875C24.5 12.3723 24.3025 12.8492 23.9508 13.2008C23.5992 13.5525 23.1223 13.75 22.625 13.75C22.1277 13.75 21.6508 13.5525 21.2992 13.2008C20.9475 12.8492 20.75 12.3723 20.75 11.875C20.75 11.3777 20.9475 10.9008 21.2992 10.5492C21.6508 10.1975 22.1277 10 22.625 10ZM34.3025 19.4275C33.568 20.7223 32.5076 21.8025 31.2266 22.5608C29.9456 23.319 28.4885 23.729 27 23.75C25.5105 23.7292 24.0523 23.3194 22.77 22.5611C21.4877 21.8029 20.426 20.7227 19.69 19.4275C19.5571 19.2201 19.4885 18.978 19.4927 18.7317C19.497 18.4853 19.5739 18.2458 19.7139 18.043C19.8538 17.8403 20.0506 17.6834 20.2794 17.5922C20.5082 17.5009 20.7589 17.4793 21 17.53C22.9221 18.2542 24.9477 18.666 27 18.75C29.0489 18.665 31.0711 18.2531 32.99 17.53C33.2313 17.4786 33.4823 17.4998 33.7116 17.5908C33.9409 17.6818 34.1381 17.8386 34.2784 18.0415C34.4187 18.2444 34.4959 18.4842 34.5002 18.7309C34.5045 18.9775 34.4357 19.2199 34.3025 19.4275Z" fill="url(#paint0_linear_556_10239)"/>
</g>
<defs>
<filter id="filter0_d_556_10239" x="0" y="0" width="54" height="53.9031" filterUnits="userSpaceOnUse" color-interpolation-filters="sRGB">
<feFlood flood-opacity="0" result="BackgroundImageFix"/>
<feColorMatrix in="SourceAlpha" type="matrix" values="0 0 0 0 0 0 0 0 0 0 0 0 0 0 0 0 0 0 127 0" result="hardAlpha"/>
<feOffset dy="12"/>
<feGaussianBlur stdDeviation="6"/>
<feComposite in2="hardAlpha" operator="out"/>
<feColorMatrix type="matrix" values="0 0 0 0 0.0196078 0 0 0 0 0.419608 0 0 0 0 0.945098 0 0 0 0.25 0"/>
<feBlend mode="normal" in2="BackgroundImageFix" result="effect1_dropShadow_556_10239"/>
<feBlend mode="normal" in="SourceGraphic" in2="effect1_dropShadow_556_10239" result="shape"/>
</filter>
<linearGradient id="paint0_linear_556_10239" x1="12" y1="0" x2="41.9028" y2="29.9998" gradientUnits="userSpaceOnUse">
<stop stop-color="#75B1FF"/>
<stop offset="1" stop-color="#056BF1"/>
</linearGradient>
</defs>
</svg>
