<svg width="30" height="30" viewBox="0 0 30 30" fill="none" xmlns="http://www.w3.org/2000/svg">
<g clip-path="url(#clip0_676_13573)">
<path d="M28.75 20C28.5565 20 28.3657 19.9551 28.1925 19.8688L25.6925 18.6188C25.3958 18.4706 25.1701 18.2106 25.0651 17.896C24.9601 17.5814 24.9843 17.238 25.1325 16.9412C25.2807 16.6445 25.5407 16.4188 25.8553 16.3138C26.1699 16.2088 26.5133 16.2331 26.81 16.3812L29.31 17.6312C29.5623 17.757 29.7647 17.9644 29.8843 18.2197C30.004 18.475 30.0338 18.7632 29.9689 19.0376C29.904 19.312 29.7483 19.5563 29.527 19.7311C29.3058 19.9058 29.0319 20.0005 28.75 20ZM26.8088 8.625L29.3088 7.375C29.6055 7.22681 29.8312 6.96682 29.9362 6.65223C30.0412 6.33764 30.0169 5.99421 29.8688 5.6975C29.7206 5.40079 29.4606 5.1751 29.146 5.07008C28.8314 4.96506 28.488 4.98931 28.1913 5.1375L25.6913 6.3875C25.3945 6.53569 25.1689 6.79568 25.0638 7.11027C24.9588 7.42486 24.9831 7.76829 25.1313 8.065C25.2794 8.36171 25.5394 8.5874 25.854 8.69242C26.1686 8.79744 26.512 8.77319 26.8088 8.625ZM30 12.5C30 12.1685 29.8683 11.8505 29.6339 11.6161C29.3995 11.3817 29.0815 11.25 28.75 11.25H26.25C25.9185 11.25 25.6005 11.3817 25.3661 11.6161C25.1317 11.8505 25 12.1685 25 12.5C25 12.8315 25.1317 13.1495 25.3661 13.3839C25.6005 13.6183 25.9185 13.75 26.25 13.75H28.75C29.0815 13.75 29.3995 13.6183 29.6339 13.3839C29.8683 13.1495 30 12.8315 30 12.5ZM22.5 23.75V1.25C22.5 0.918479 22.3683 0.600537 22.1339 0.366117C21.8995 0.131696 21.5815 0 21.25 0C20.9185 0 20.6005 0.131696 20.3661 0.366117C20.1317 0.600537 20 0.918479 20 1.25C20 4.93625 16.7713 6.25 13.75 6.25H5C3.67392 6.25 2.40215 6.77678 1.46447 7.71447C0.526784 8.65215 0 9.92392 0 11.25L0 13.75C0 15.0761 0.526784 16.3479 1.46447 17.2855C2.40215 18.2232 3.67392 18.75 5 18.75H13.75C16.7713 18.75 20 20.0637 20 23.75C20 24.0815 20.1317 24.3995 20.3661 24.6339C20.6005 24.8683 20.9185 25 21.25 25C21.5815 25 21.8995 24.8683 22.1339 24.6339C22.3683 24.3995 22.5 24.0815 22.5 23.75ZM10.2325 21.25H5C4.41802 21.2477 3.83828 21.1776 3.2725 21.0413L6.3975 28.0188C6.65995 28.6085 7.08773 29.1095 7.62905 29.4611C8.17036 29.8128 8.802 29.9999 9.4475 30C9.96107 29.9993 10.4663 29.8701 10.9171 29.6242C11.368 29.3782 11.7501 29.0234 12.0287 28.5919C12.3073 28.1605 12.4735 27.6662 12.5122 27.1541C12.5508 26.642 12.4607 26.1284 12.25 25.66L10.2325 21.25Z" fill="white"/>
</g>
<defs>
<clipPath id="clip0_676_13573">
<rect width="30" height="30" fill="white"/>
</clipPath>
</defs>
</svg>
