<svg width="52" height="52" viewBox="0 0 52 52" fill="none" xmlns="http://www.w3.org/2000/svg">
<rect opacity="0.1" width="52" height="52" rx="26" fill="#056BF1"/>
<g clip-path="url(#clip0_1136_26)">
<path d="M21 36H22.775C23.1479 35.9964 23.5092 35.8691 23.8019 35.6381C24.0947 35.407 24.3024 35.0852 24.3925 34.7233C24.489 34.371 24.6986 34.0601 24.989 33.8384C25.2794 33.6168 25.6347 33.4968 26 33.4968C26.3653 33.4968 26.7205 33.6168 27.011 33.8384C27.3014 34.0601 27.511 34.371 27.6075 34.7233C27.6976 35.0852 27.9053 35.407 28.1981 35.6381C28.4908 35.8691 28.852 35.9964 29.225 36H31C31.663 36 32.2989 35.7366 32.7678 35.2678C33.2366 34.7989 33.5 34.163 33.5 33.5V30.1667H30.1667C29.9456 30.1667 29.7337 30.0789 29.5774 29.9226C29.4211 29.7663 29.3333 29.5543 29.3333 29.3333C29.3333 29.1123 29.4211 28.9004 29.5774 28.7441C29.7337 28.5878 29.9456 28.5 30.1667 28.5H33.5V20.1667C33.4987 19.062 33.0593 18.003 32.2781 17.2218C31.497 16.4407 30.438 16.0013 29.3333 16H29.225C28.852 16.0035 28.4908 16.1308 28.1981 16.3619C27.9053 16.593 27.6976 16.9147 27.6075 17.2767C27.511 17.629 27.3014 17.9399 27.011 18.1615C26.7205 18.3832 26.3653 18.5032 26 18.5032C25.6347 18.5032 25.2794 18.3832 24.989 18.1615C24.6986 17.9399 24.489 17.629 24.3925 17.2767C24.3024 16.9147 24.0947 16.593 23.8019 16.3619C23.5092 16.1308 23.1479 16.0035 22.775 16H22.6667C21.562 16.0013 20.503 16.4407 19.7218 17.2218C18.9407 18.003 18.5013 19.062 18.5 20.1667V28.5H21.8333C22.0543 28.5 22.2663 28.5878 22.4226 28.7441C22.5789 28.9004 22.6667 29.1123 22.6667 29.3333C22.6667 29.5543 22.5789 29.7663 22.4226 29.9226C22.2663 30.0789 22.0543 30.1667 21.8333 30.1667H18.5V33.5C18.5 34.163 18.7634 34.7989 19.2322 35.2678C19.7011 35.7366 20.337 36 21 36ZM25.1667 28.5H26.8333C27.0543 28.5 27.2663 28.5878 27.4226 28.7441C27.5789 28.9004 27.6667 29.1123 27.6667 29.3333C27.6667 29.5543 27.5789 29.7663 27.4226 29.9226C27.2663 30.0789 27.0543 30.1667 26.8333 30.1667H25.1667C24.9456 30.1667 24.7337 30.0789 24.5774 29.9226C24.4211 29.7663 24.3333 29.5543 24.3333 29.3333C24.3333 29.1123 24.4211 28.9004 24.5774 28.7441C24.7337 28.5878 24.9456 28.5 25.1667 28.5V28.5Z" fill="url(#paint0_linear_1136_26)"/>
</g>
<defs>
<linearGradient id="paint0_linear_1136_26" x1="18.5" y1="16" x2="37.7" y2="30.4" gradientUnits="userSpaceOnUse">
<stop stop-color="#75B1FF"/>
<stop offset="1" stop-color="#056BF1"/>
</linearGradient>
<clipPath id="clip0_1136_26">
<rect width="20" height="20" fill="white" transform="translate(16 16)"/>
</clipPath>
</defs>
</svg>
