<svg width="52" height="52" viewBox="0 0 52 52" fill="none" xmlns="http://www.w3.org/2000/svg">
<rect opacity="0.1" width="52" height="52" rx="26" fill="#FFB300"/>
<g clip-path="url(#clip0_1133_331)">
<path d="M31.8301 16.002H20.1658C17.8651 16.002 16 17.867 16 20.1678C16 21.5482 17.1191 22.6673 18.4995 22.6673H33.4965C34.8123 22.6833 35.9106 21.6667 35.996 20.3535C36.0963 18.0527 34.3124 16.1062 32.0116 16.0059C31.9511 16.0032 31.8906 16.002 31.8301 16.002Z" fill="url(#paint0_linear_1133_331)"/>
<path d="M34.3304 24.334H17.6671C17.207 24.334 16.834 24.707 16.834 25.1671V31.8325C16.8367 34.1321 18.7002 35.9955 20.9998 35.9983H30.9978C33.2973 35.9955 35.1608 34.1321 35.1636 31.8325V25.1671C35.1636 24.707 34.7906 24.334 34.3304 24.334ZM28.4983 28.4998H23.4993C23.0391 28.4998 22.6661 28.1268 22.6661 27.6667C22.6661 27.2065 23.0391 26.8335 23.4993 26.8335H28.4983C28.9584 26.8335 29.3314 27.2065 29.3314 27.6667C29.3314 28.1268 28.9584 28.4998 28.4983 28.4998Z" fill="url(#paint1_linear_1133_331)"/>
</g>
<defs>
<linearGradient id="paint0_linear_1133_331" x1="16" y1="16.002" x2="19.9987" y2="28.0003" gradientUnits="userSpaceOnUse">
<stop stop-color="#FFD470"/>
<stop offset="1" stop-color="#FB9600"/>
</linearGradient>
<linearGradient id="paint1_linear_1133_331" x1="16.834" y1="24.334" x2="27.4005" y2="40.9385" gradientUnits="userSpaceOnUse">
<stop stop-color="#FFD470"/>
<stop offset="1" stop-color="#FB9600"/>
</linearGradient>
<clipPath id="clip0_1133_331">
<rect width="20" height="20" fill="white" transform="translate(16 16)"/>
</clipPath>
</defs>
</svg>
