<svg width="52" height="52" viewBox="0 0 52 52" fill="none" xmlns="http://www.w3.org/2000/svg">
<rect opacity="0.1" width="52" height="52" rx="26" fill="#FA4F58"/>
<g clip-path="url(#clip0_1133_364)">
<path d="M29.3333 17.6667H29.1908C29.0178 17.1796 28.6984 16.7579 28.2763 16.4595C27.8543 16.1611 27.3502 16.0006 26.8333 16H25.1667C24.6498 16.0006 24.1457 16.1611 23.7237 16.4595C23.3016 16.7579 22.9821 17.1796 22.8092 17.6667H22.6667C21.562 17.668 20.503 18.1074 19.7218 18.8885C18.9407 19.6696 18.5013 20.7287 18.5 21.8333V31.8333C18.5013 32.938 18.9407 33.997 19.7218 34.7781C20.503 35.5593 21.562 35.9987 22.6667 36H29.3333C30.438 35.9987 31.497 35.5593 32.2781 34.7781C33.0593 33.997 33.4987 32.938 33.5 31.8333V21.8333C33.4987 20.7287 33.0593 19.6696 32.2781 18.8885C31.497 18.1074 30.438 17.668 29.3333 17.6667ZM23.5 21.8333H25.1667V20.1667C25.1667 19.9457 25.2545 19.7337 25.4107 19.5774C25.567 19.4211 25.779 19.3333 26 19.3333C26.221 19.3333 26.433 19.4211 26.5893 19.5774C26.7455 19.7337 26.8333 19.9457 26.8333 20.1667V21.8333H28.5C28.721 21.8333 28.933 21.9211 29.0892 22.0774C29.2455 22.2337 29.3333 22.4457 29.3333 22.6667C29.3333 22.8877 29.2455 23.0996 29.0892 23.2559C28.933 23.4122 28.721 23.5 28.5 23.5H26.8333V25.1667C26.8333 25.3877 26.7455 25.5996 26.5893 25.7559C26.433 25.9122 26.221 26 26 26C25.779 26 25.567 25.9122 25.4107 25.7559C25.2545 25.5996 25.1667 25.3877 25.1667 25.1667V23.5H23.5C23.279 23.5 23.067 23.4122 22.9107 23.2559C22.7545 23.0996 22.6667 22.8877 22.6667 22.6667C22.6667 22.4457 22.7545 22.2337 22.9107 22.0774C23.067 21.9211 23.279 21.8333 23.5 21.8333ZM26 32.6667H22.6667C22.4457 32.6667 22.2337 32.5789 22.0774 32.4226C21.9211 32.2663 21.8333 32.0543 21.8333 31.8333C21.8333 31.6123 21.9211 31.4004 22.0774 31.2441C22.2337 31.0878 22.4457 31 22.6667 31H26C26.221 31 26.433 31.0878 26.5893 31.2441C26.7455 31.4004 26.8333 31.6123 26.8333 31.8333C26.8333 32.0543 26.7455 32.2663 26.5893 32.4226C26.433 32.5789 26.221 32.6667 26 32.6667ZM29.3333 29.3333H22.6667C22.4457 29.3333 22.2337 29.2455 22.0774 29.0893C21.9211 28.933 21.8333 28.721 21.8333 28.5C21.8333 28.279 21.9211 28.067 22.0774 27.9107C22.2337 27.7545 22.4457 27.6667 22.6667 27.6667H29.3333C29.5543 27.6667 29.7663 27.7545 29.9226 27.9107C30.0789 28.067 30.1667 28.279 30.1667 28.5C30.1667 28.721 30.0789 28.933 29.9226 29.0893C29.7663 29.2455 29.5543 29.3333 29.3333 29.3333Z" fill="url(#paint0_linear_1133_364)"/>
</g>
<defs>
<linearGradient id="paint0_linear_1133_364" x1="18.5" y1="16" x2="37.7" y2="30.4" gradientUnits="userSpaceOnUse">
<stop stop-color="#FF7E85"/>
<stop offset="1" stop-color="#FF2632"/>
</linearGradient>
<clipPath id="clip0_1133_364">
<rect width="20" height="20" fill="white" transform="translate(16 16)"/>
</clipPath>
</defs>
</svg>
