<svg width="51" height="53" viewBox="0 0 51 53" fill="none" xmlns="http://www.w3.org/2000/svg">
<g filter="url(#filter0_d_556_10253)">
<path d="M14.4387 18.75H11V17.5C10.981 15.7473 11.4452 14.0233 12.3415 12.5171C13.2379 11.0109 14.5317 9.78059 16.0812 8.96125C17.6076 8.20863 19.2608 7.7466 20.9562 7.59875C20.2154 8.51542 19.4725 9.48958 18.7275 10.5212C17.0495 13.1274 15.6139 15.8818 14.4387 18.75ZM30.4787 22.2662C27.8728 23.9464 25.1184 25.3841 22.25 26.5612V30H23.5C25.2526 30.0189 26.9766 29.5548 28.4829 28.6584C29.9891 27.7621 31.2194 26.4682 32.0387 24.9187C32.7913 23.3923 33.2534 21.7392 33.4012 20.0437C32.4887 20.7812 31.5145 21.5221 30.4787 22.2662ZM41 3.73875C40.8337 9.18 36.9162 14.5762 29.0225 20.2387C26.8744 21.6313 24.6082 22.8326 22.25 23.8287V23.125C22.2444 21.9664 21.7816 20.8568 20.9624 20.0376C20.1431 19.2183 19.0336 18.7556 17.875 18.75H17.1712C18.1686 16.3918 19.3716 14.126 20.7662 11.9787C26.415 4.0975 31.8025 0.18 37.235 0C39.9425 0 41 1.10625 41 3.73875ZM33.5 10.625C33.5 9.7962 33.1707 9.00134 32.5847 8.41529C31.9986 7.82924 31.2038 7.5 30.375 7.5C29.5462 7.5 28.7513 7.82924 28.1653 8.41529C27.5792 9.00134 27.25 9.7962 27.25 10.625C27.25 11.4538 27.5792 12.2487 28.1653 12.8347C28.7513 13.4208 29.5462 13.75 30.375 13.75C31.2038 13.75 31.9986 13.4208 32.5847 12.8347C33.1707 12.2487 33.5 11.4538 33.5 10.625ZM12.7175 29.7312C14.125 29.4812 17.5187 28.7837 18.6525 27.6512C19.0007 27.303 19.277 26.8896 19.4654 26.4346C19.6539 25.9795 19.7509 25.4919 19.7509 24.9994C19.7509 24.5069 19.6539 24.0192 19.4654 23.5642C19.277 23.1092 19.0007 22.6957 18.6525 22.3475C18.3042 21.9992 17.8908 21.723 17.4358 21.5345C16.9808 21.3461 16.4931 21.2491 16.0006 21.2491C15.0059 21.2491 14.052 21.6442 13.3487 22.3475C12.2162 23.4812 11.5175 26.875 11.2687 28.2825L10.96 30.04L12.7175 29.7312Z" fill="url(#paint0_linear_556_10253)"/>
</g>
<defs>
<filter id="filter0_d_556_10253" x="0.959961" y="0" width="50.04" height="52.04" filterUnits="userSpaceOnUse" color-interpolation-filters="sRGB">
<feFlood flood-opacity="0" result="BackgroundImageFix"/>
<feColorMatrix in="SourceAlpha" type="matrix" values="0 0 0 0 0 0 0 0 0 0 0 0 0 0 0 0 0 0 127 0" result="hardAlpha"/>
<feMorphology radius="2" operator="erode" in="SourceAlpha" result="effect1_dropShadow_556_10253"/>
<feOffset dy="12"/>
<feGaussianBlur stdDeviation="6"/>
<feComposite in2="hardAlpha" operator="out"/>
<feColorMatrix type="matrix" values="0 0 0 0 1 0 0 0 0 0.701961 0 0 0 0 0 0 0 0 0.25 0"/>
<feBlend mode="normal" in2="BackgroundImageFix" result="effect1_dropShadow_556_10253"/>
<feBlend mode="normal" in="SourceGraphic" in2="effect1_dropShadow_556_10253" result="shape"/>
</filter>
<linearGradient id="paint0_linear_556_10253" x1="10.96" y1="0" x2="41" y2="30.04" gradientUnits="userSpaceOnUse">
<stop stop-color="#FFD470"/>
<stop offset="1" stop-color="#FB9600"/>
</linearGradient>
</defs>
</svg>
