<svg width="52" height="52" viewBox="0 0 52 52" fill="none" xmlns="http://www.w3.org/2000/svg">
<rect opacity="0.1" width="52" height="52" rx="26" fill="#FF7043"/>
<g clip-path="url(#clip0_1136_25)">
<path d="M34.9275 19.3975C34.6931 19.1162 34.3996 18.89 34.0679 18.7348C33.7363 18.5797 33.3745 18.4996 33.0083 18.5H19.535L19.5 18.2075C19.4284 17.5995 19.1362 17.0389 18.6787 16.6321C18.2213 16.2252 17.6305 16.0003 17.0183 16H16.8333C16.6123 16 16.4004 16.0878 16.2441 16.2441C16.0878 16.4004 16 16.6123 16 16.8333C16 17.0543 16.0878 17.2663 16.2441 17.4226C16.4004 17.5789 16.6123 17.6667 16.8333 17.6667H17.0183C17.2224 17.6667 17.4194 17.7416 17.572 17.8773C17.7245 18.0129 17.822 18.1998 17.8458 18.4025L18.9925 28.1525C19.1115 29.1665 19.5987 30.1015 20.3616 30.78C21.1244 31.4585 22.1099 31.8334 23.1308 31.8333H31.8333C32.0543 31.8333 32.2663 31.7455 32.4226 31.5893C32.5789 31.433 32.6667 31.221 32.6667 31C32.6667 30.779 32.5789 30.567 32.4226 30.4107C32.2663 30.2545 32.0543 30.1667 31.8333 30.1667H23.1308C22.615 30.1652 22.1123 30.0043 21.6916 29.7059C21.2709 29.4075 20.9528 28.9863 20.7808 28.5H30.7142C31.6911 28.5001 32.6369 28.1569 33.3865 27.5304C34.1361 26.9039 34.6417 26.0339 34.815 25.0725L35.4692 21.4442C35.5345 21.0842 35.5198 20.7142 35.4262 20.3605C35.3326 20.0068 35.1623 19.6781 34.9275 19.3975Z" fill="url(#paint0_linear_1136_25)"/>
<path d="M21.8327 36.0004C22.7532 36.0004 23.4993 35.2542 23.4993 34.3337C23.4993 33.4132 22.7532 32.667 21.8327 32.667C20.9122 32.667 20.166 33.4132 20.166 34.3337C20.166 35.2542 20.9122 36.0004 21.8327 36.0004Z" fill="url(#paint1_linear_1136_25)"/>
<path d="M30.1667 36.0004C31.0871 36.0004 31.8333 35.2542 31.8333 34.3337C31.8333 33.4132 31.0871 32.667 30.1667 32.667C29.2462 32.667 28.5 33.4132 28.5 34.3337C28.5 35.2542 29.2462 36.0004 30.1667 36.0004Z" fill="url(#paint2_linear_1136_25)"/>
</g>
<defs>
<linearGradient id="paint0_linear_1136_25" x1="16" y1="16" x2="31.4944" y2="35.0917" gradientUnits="userSpaceOnUse">
<stop stop-color="#FFAB91"/>
<stop offset="0.9999" stop-color="#FF4307"/>
</linearGradient>
<linearGradient id="paint1_linear_1136_25" x1="20.166" y1="32.667" x2="23.4994" y2="36.0003" gradientUnits="userSpaceOnUse">
<stop stop-color="#FFAB91"/>
<stop offset="0.9999" stop-color="#FF4307"/>
</linearGradient>
<linearGradient id="paint2_linear_1136_25" x1="28.5" y1="32.667" x2="31.8334" y2="36.0003" gradientUnits="userSpaceOnUse">
<stop stop-color="#FFAB91"/>
<stop offset="0.9999" stop-color="#FF4307"/>
</linearGradient>
<clipPath id="clip0_1136_25">
<rect width="20" height="20" fill="white" transform="translate(16 16)"/>
</clipPath>
</defs>
</svg>
