<svg width="137" height="42" viewBox="0 0 137 42" fill="none" xmlns="http://www.w3.org/2000/svg">
<g clip-path="url(#clip0_1677_315)">
<path d="M36 0H6C2.68629 0 0 2.68629 0 6V36C0 39.3137 2.6863 42 6 42H36C39.3137 42 42 39.3137 42 36V6C42 2.68629 39.3137 0 36 0Z" fill="white"/>
<path d="M28.5598 26.4601C29.0054 26.4601 29.4327 26.2831 29.7478 25.9681C30.0628 25.653 30.2398 25.2257 30.2398 24.7801C30.2398 24.3345 30.0628 23.9072 29.7478 23.5922C29.4327 23.2771 29.0054 23.1001 28.5598 23.1001V18.9001C30.1193 18.9001 31.6149 19.5196 32.7176 20.6223C33.8203 21.725 34.4398 23.2206 34.4398 24.7801C34.4398 26.3396 33.8203 27.8352 32.7176 28.9379C31.6149 30.0406 30.1193 30.6601 28.5598 30.6601V26.4601ZM28.5598 30.6601H27.8229C28.2952 30.0748 28.555 29.3466 28.5598 28.5945V30.6601ZM21.8398 28.5601C21.8398 28.1448 21.963 27.7388 22.1938 27.3934C22.4245 27.0481 22.7525 26.7789 23.1362 26.62C23.5199 26.461 23.9422 26.4194 24.3495 26.5005C24.7569 26.5815 25.1311 26.7815 25.4248 27.0752C25.7185 27.3689 25.9185 27.7431 25.9995 28.1504C26.0805 28.5578 26.0389 28.98 25.88 29.3637C25.721 29.7475 25.4519 30.0754 25.1065 30.3062C24.7612 30.537 24.3552 30.6601 23.9398 30.6601C23.3829 30.6601 22.8487 30.4389 22.4549 30.045C22.0611 29.6512 21.8398 29.1171 21.8398 28.5601V28.5601ZM28.5598 28.5259C28.555 27.7738 28.2952 27.0455 27.8229 26.4601H28.5598V28.5259ZM27.7198 23.1001C26.3633 23.0992 25.0488 22.6295 23.9989 21.7704C22.9491 20.9114 22.2285 19.7158 21.9591 18.3863C21.6898 17.0568 21.8883 15.675 22.5211 14.4751C23.1538 13.2752 24.1819 12.3308 25.4311 11.8021C26.1552 11.4957 26.9336 11.3385 27.7198 11.3401H34.4398V12.1801C34.4398 13.0712 34.0858 13.9259 33.4557 14.556C32.8256 15.1861 31.971 15.5401 31.0798 15.5401H27.7198C27.2743 15.5401 26.847 15.7171 26.5319 16.0322C26.2168 16.3472 26.0398 16.7745 26.0398 17.2201C26.0398 17.6657 26.2168 18.093 26.5319 18.408C26.847 18.7231 27.2743 18.9001 27.7198 18.9001H28.5598V23.1001H27.7198Z" fill="url(#paint0_linear_1677_315)"/>
<path d="M13.4396 30.6601V26.4601C13.885 26.4596 14.312 26.2824 14.627 25.9675C14.9419 25.6525 15.1191 25.2255 15.1196 24.7801H19.3196C19.3203 25.5524 19.1687 26.3173 18.8734 27.0309C18.5782 27.7446 18.1452 28.393 17.5991 28.9392C17.0531 29.4853 16.4047 29.9184 15.691 30.2137C14.9774 30.509 14.2126 30.6607 13.4402 30.6601H13.4396ZM7.55957 30.6601V29.8201C7.55957 28.929 7.91357 28.0743 8.54369 27.4442C9.17381 26.8141 10.0284 26.4601 10.9196 26.4601H13.4396V30.6601H7.55957ZM15.1196 24.7801V14.7001C15.1196 13.809 15.4736 12.9543 16.1037 12.3242C16.7338 11.6941 17.5884 11.3401 18.4796 11.3401H19.3196V24.7801H15.1196Z" fill="url(#paint1_linear_1677_315)"/>
<path d="M60.0305 12.5996V15.4105H55.7283V27.8817H52.1818V15.4105H47.8799V12.5996H60.0305ZM64.0596 16.837C64.7338 16.8291 65.4038 16.9429 66.0375 17.173C66.6155 17.384 67.1415 17.7166 67.5799 18.1484C68.0225 18.5941 68.3658 19.1285 68.5871 19.7164C68.8379 20.3887 68.9607 21.1019 68.9491 21.8193C68.9516 22.0191 68.9411 22.2188 68.9176 22.4172C68.9047 22.5461 68.8654 22.6711 68.8022 22.7842C68.7509 22.8712 68.6712 22.9379 68.5766 22.9731C68.4599 23.0114 68.3374 23.0292 68.2146 23.0255H61.9398C62.0445 23.9343 62.3209 24.5932 62.7689 25.0022C63.2169 25.4112 63.794 25.6156 64.5001 25.6154C64.8305 25.6223 65.16 25.5764 65.4759 25.4793C65.7267 25.3976 65.9705 25.2959 66.2051 25.1751C66.4184 25.0631 66.6144 24.9617 66.7931 24.871C66.9666 24.7813 67.1591 24.7345 67.3544 24.7346C67.4684 24.7281 67.5821 24.7507 67.6849 24.8002C67.7877 24.8497 67.8762 24.9246 67.942 25.0178L68.8864 26.182C68.573 26.5473 68.2068 26.8637 67.7999 27.1208C67.4248 27.3559 67.0233 27.546 66.6037 27.6872C66.2047 27.8212 65.7936 27.9161 65.3762 27.9704C64.9882 28.0214 64.5975 28.0477 64.2062 28.049C63.4745 28.0544 62.7477 27.9283 62.0605 27.6767C61.4046 27.4362 60.8074 27.059 60.3083 26.5702C59.7892 26.0519 59.3853 25.4301 59.1226 24.7452C58.8323 24.018 58.6872 23.1719 58.6872 22.207C58.6832 21.5012 58.8095 20.8006 59.0596 20.1406C59.2987 19.505 59.6626 18.9237 60.1299 18.4309C60.6082 17.9323 61.183 17.5362 61.8192 17.2667C62.5283 16.9706 63.291 16.8243 64.0594 16.8369L64.0596 16.837ZM64.1225 19.0815C63.5 19.0815 63.0138 19.2581 62.6641 19.6112C62.3143 19.9644 62.0834 20.4731 61.9716 21.1373H66.0322C66.0327 20.8823 65.9991 20.6283 65.9325 20.3822C65.8693 20.1441 65.7586 19.9213 65.6072 19.727C65.4482 19.5278 65.2454 19.3681 65.0145 19.2603C64.7345 19.1339 64.4294 19.0727 64.1223 19.0814L64.1225 19.0815ZM70.8165 27.8817V17.0047H72.8311C73.0105 16.9983 73.1878 17.0457 73.3399 17.141C73.4815 17.239 73.5837 17.3839 73.6285 17.5501L73.8065 18.1377C73.9841 17.9528 74.1734 17.7794 74.3731 17.6185C74.5699 17.4605 74.7827 17.3234 75.0079 17.2094C75.2418 17.0916 75.4882 17.0001 75.7423 16.9368C76.0257 16.8679 76.3164 16.8344 76.608 16.8371C77.2655 16.8371 77.8094 17.0067 78.2396 17.3458C78.6825 17.7024 79.0214 18.1715 79.2206 18.7041C79.3923 18.3817 79.6176 18.0908 79.8869 17.844C80.141 17.6119 80.4272 17.4176 80.7368 17.2672C81.0439 17.1194 81.3682 17.0102 81.7021 16.942C82.0352 16.8727 82.3745 16.8376 82.7147 16.8371C83.2797 16.8272 83.8416 16.9215 84.3725 17.1151C84.8339 17.2861 85.2489 17.5627 85.5844 17.9227C85.9221 18.2976 86.1745 18.7413 86.3241 19.2232C86.4996 19.7884 86.5847 20.3778 86.5761 20.9696V27.8817H83.3237V20.9693C83.3237 19.8437 82.841 19.2809 81.8757 19.2809C81.6729 19.2748 81.471 19.3103 81.2824 19.3852C81.0939 19.46 80.9226 19.5727 80.7792 19.7162C80.4889 20.0064 80.3438 20.4242 80.3438 20.9696V27.8817H77.0909V20.9693C77.0909 20.347 76.9685 19.91 76.7236 19.6583C76.4788 19.4065 76.1186 19.2805 75.6429 19.2803C75.353 19.2793 75.067 19.3477 74.8088 19.4795C74.5366 19.6195 74.2872 19.7998 74.0691 20.0144V27.8817H70.8165ZM88.8849 31.3324V17.0047H90.8995C91.0789 16.9983 91.2562 17.0457 91.4083 17.141C91.5499 17.239 91.6521 17.3839 91.6969 17.5501L91.9382 18.3473C92.1457 18.1188 92.3721 17.9083 92.615 17.718C92.8563 17.5292 93.1164 17.3659 93.3912 17.2305C93.6757 17.0912 93.9748 16.9839 94.283 16.9106C94.6252 16.831 94.9757 16.7923 95.327 16.7953C95.8747 16.7908 96.4151 16.9206 96.9009 17.1733C97.3958 17.4355 97.8232 17.8087 98.1497 18.2637C98.5248 18.7926 98.8035 19.3837 98.9729 20.0096C99.1821 20.7731 99.2827 21.5623 99.2719 22.3538C99.2795 23.1223 99.1643 23.8871 98.9309 24.6193C98.7239 25.2733 98.4004 25.8844 97.9761 26.4233C97.5792 26.9238 97.078 27.3318 96.5075 27.619C95.9189 27.91 95.2698 28.0574 94.6133 28.0491C94.0467 28.0491 93.571 27.9687 93.1863 27.8079C92.804 27.6486 92.4498 27.429 92.137 27.1575V31.3323L88.8849 31.3324ZM94.1937 19.2811C93.9767 19.2789 93.7602 19.3018 93.5484 19.3493C93.3629 19.3923 93.1833 19.4574 93.0133 19.5434C92.8472 19.6285 92.6936 19.7361 92.5569 19.8632C92.4074 20.0026 92.2671 20.1515 92.1369 20.309V24.924C92.3527 25.1761 92.6263 25.3722 92.9343 25.4956C93.2227 25.6042 93.5285 25.6593 93.8366 25.6581C94.1228 25.6613 94.406 25.6004 94.6655 25.4798C94.9303 25.3498 95.1564 25.1527 95.3213 24.9082C95.528 24.5969 95.6756 24.2503 95.7568 23.8856C95.8706 23.3833 95.9235 22.8692 95.9142 22.3542C95.9222 21.8687 95.88 21.3837 95.7882 20.9068C95.726 20.5727 95.6071 20.2517 95.4367 19.9576C95.3085 19.7375 95.1213 19.5577 94.8963 19.4384C94.6778 19.3315 94.4371 19.2774 94.1939 19.2807L94.1937 19.2811ZM104.371 12.1804V27.8817H101.119V12.1804H104.371ZM114.507 27.8817C114.199 27.8817 113.967 27.8397 113.81 27.7557C113.652 27.6717 113.521 27.4969 113.416 27.2313L113.185 26.6335C112.912 26.8642 112.65 27.067 112.398 27.2418C112.152 27.4136 111.89 27.5628 111.617 27.6876C111.342 27.8117 111.053 27.9031 110.756 27.9599C110.422 28.022 110.083 28.0518 109.744 28.049C109.285 28.0546 108.829 27.9889 108.39 27.8543C108.009 27.7382 107.657 27.5428 107.357 27.2808C107.069 27.0215 106.844 26.6993 106.701 26.3391C106.54 25.9252 106.462 25.4838 106.47 25.0397C106.477 24.6262 106.577 24.2196 106.764 23.8506C106.96 23.4438 107.299 23.0737 107.782 22.7405C108.264 22.4072 108.915 22.1284 109.733 21.9039C110.552 21.6795 111.584 21.5673 112.829 21.5673V21.1015C112.829 20.4593 112.698 19.9952 112.435 19.7094C112.173 19.4236 111.801 19.2808 111.318 19.281C110.999 19.2719 110.68 19.3144 110.374 19.407C110.148 19.4828 109.928 19.5775 109.718 19.6902C109.526 19.7951 109.338 19.8895 109.157 19.9734C108.951 20.062 108.729 20.105 108.506 20.0994C108.303 20.1055 108.103 20.0487 107.934 19.9368C107.781 19.8326 107.653 19.6944 107.562 19.533L106.974 18.5156C107.612 17.9464 108.355 17.5065 109.161 17.2203C109.989 16.9325 110.861 16.7888 111.737 16.7955C112.345 16.7864 112.949 16.895 113.516 17.1153C114.022 17.3138 114.479 17.6177 114.859 18.0068C115.231 18.3963 115.519 18.8588 115.703 19.3651C115.904 19.9162 116.004 20.4989 115.997 21.0853V27.8817H114.507ZM110.772 25.8993C111.151 25.9077 111.527 25.8325 111.874 25.6791C112.232 25.5002 112.555 25.2586 112.829 24.9658V23.4762C112.291 23.4667 111.753 23.5092 111.223 23.6031C110.878 23.6633 110.543 23.7701 110.226 23.9205C110.019 24.0144 109.843 24.1648 109.718 24.3543C109.624 24.5147 109.575 24.6976 109.576 24.8835C109.576 25.2573 109.677 25.5201 109.88 25.6717C110.083 25.8234 110.38 25.8992 110.772 25.8993ZM122.125 28.0497C121.659 28.0584 121.195 27.9819 120.756 27.8242C120.381 27.6867 120.04 27.4683 119.759 27.1843C119.484 26.899 119.275 26.5572 119.145 26.1827C119 25.761 118.929 25.3175 118.935 24.8716V19.2498H118.012C117.853 19.2531 117.699 19.1949 117.582 19.0872C117.519 19.0251 117.471 18.9504 117.441 18.868C117.41 18.7857 117.397 18.6977 117.403 18.61V17.341L119.134 17.005L119.775 14.3514C119.859 14.0158 120.096 13.848 120.488 13.848H122.188V17.026H124.832V19.2495H122.188V24.6507C122.179 24.8732 122.244 25.0925 122.371 25.2748C122.433 25.3562 122.513 25.4213 122.606 25.4643C122.698 25.5073 122.8 25.5268 122.901 25.5212C123.002 25.5235 123.103 25.5112 123.2 25.4845C123.273 25.4632 123.343 25.4351 123.41 25.4005C123.47 25.369 123.526 25.341 123.578 25.3165C123.636 25.2909 123.699 25.2784 123.762 25.2798C123.846 25.2756 123.929 25.2997 123.998 25.348C124.071 25.4089 124.133 25.4816 124.182 25.563L125.168 27.1049C124.742 27.4229 124.262 27.6626 123.752 27.8128C123.224 27.9707 122.676 28.0503 122.125 28.0491V28.0497ZM131.358 16.8375C132.033 16.8296 132.703 16.9434 133.336 17.1735C133.914 17.3845 134.44 17.7171 134.879 18.1489C135.321 18.5946 135.665 19.129 135.886 19.7169C136.137 20.3892 136.259 21.1024 136.248 21.8198C136.25 22.0196 136.24 22.2193 136.216 22.4177C136.203 22.5466 136.164 22.6716 136.101 22.7847C136.05 22.8718 135.97 22.9384 135.875 22.9736C135.759 23.012 135.636 23.0297 135.513 23.026H129.239C129.344 23.935 129.62 24.594 130.067 25.0031C130.515 25.4122 131.092 25.6166 131.799 25.6163C132.129 25.6229 132.459 25.5767 132.774 25.4793C133.025 25.3976 133.269 25.2959 133.504 25.1751C133.717 25.0631 133.913 24.9617 134.091 24.871C134.265 24.7813 134.457 24.7345 134.653 24.7346C134.767 24.7281 134.88 24.7507 134.983 24.8002C135.086 24.8497 135.174 24.9246 135.24 25.0178L136.185 26.1821C135.872 26.5473 135.506 26.8637 135.099 27.1208C134.724 27.3559 134.322 27.546 133.903 27.6872C133.504 27.8212 133.093 27.9161 132.675 27.9704C132.287 28.0214 131.897 28.0477 131.505 28.049C130.774 28.0544 130.047 27.9283 129.36 27.6767C128.704 27.4361 128.106 27.0589 127.607 26.5701C127.088 26.0518 126.684 25.43 126.422 24.7451C126.131 24.0179 125.986 23.1718 125.986 22.2069C125.982 21.5011 126.109 20.8006 126.359 20.1405C126.598 19.5049 126.962 18.9236 127.429 18.4309C127.907 17.9323 128.482 17.5362 129.118 17.2666C129.827 16.9706 130.59 16.8243 131.358 16.8369V16.8375ZM131.421 19.082C130.799 19.082 130.313 19.2586 129.963 19.6117C129.613 19.9649 129.382 20.4736 129.27 21.1378H133.331C133.331 20.8828 133.298 20.6289 133.231 20.3827C133.168 20.1446 133.057 19.9218 132.906 19.7275C132.747 19.5283 132.544 19.3686 132.313 19.2608C132.033 19.1342 131.728 19.0729 131.421 19.0814V19.082Z" fill="white"/>
</g>
<defs>
<linearGradient id="paint0_linear_1677_315" x1="21.8398" y1="11.3401" x2="39.52" y2="22.8706" gradientUnits="userSpaceOnUse">
<stop stop-color="#70C276"/>
<stop offset="1" stop-color="#3E9645"/>
</linearGradient>
<linearGradient id="paint1_linear_1677_315" x1="7.55957" y1="11.3401" x2="24.7211" y2="21.7862" gradientUnits="userSpaceOnUse">
<stop stop-color="#70C276"/>
<stop offset="1" stop-color="#3E9645"/>
</linearGradient>
<clipPath id="clip0_1677_315">
<rect width="136.248" height="42" fill="white"/>
</clipPath>
</defs>
</svg>
