<svg width="1920" height="837" viewBox="0 0 1920 837" fill="none" xmlns="http://www.w3.org/2000/svg">
<rect width="1920" height="837" fill="#55B05C"/>
<path d="M1156.55 776.208C1156.55 781.413 1155.89 786.149 1154.56 790.416C1153.28 794.683 1151.32 798.352 1148.68 801.424C1146.07 804.453 1142.79 806.821 1138.82 808.528C1134.85 810.192 1130.18 811.024 1124.8 811.024C1122.37 811.024 1119.96 810.896 1117.57 810.64C1115.22 810.384 1112.77 809.957 1110.21 809.36L1111.36 796.752C1111.45 795.643 1111.88 794.747 1112.64 794.064C1113.45 793.381 1114.56 793.04 1115.97 793.04C1116.7 793.04 1117.59 793.168 1118.66 793.424C1119.73 793.637 1121.01 793.744 1122.5 793.744C1124.59 793.744 1126.4 793.467 1127.94 792.912C1129.52 792.315 1130.82 791.355 1131.84 790.032C1132.87 788.667 1133.64 786.896 1134.15 784.72C1134.66 782.544 1134.92 779.856 1134.92 776.656V716.752H1156.55V776.208ZM1223.84 735.696C1223.2 736.72 1222.51 737.488 1221.79 738C1221.1 738.512 1220.21 738.768 1219.1 738.768C1218.12 738.768 1217.05 738.469 1215.9 737.872C1214.79 737.232 1213.51 736.528 1212.06 735.76C1210.65 734.992 1209.03 734.309 1207.2 733.712C1205.36 733.072 1203.27 732.752 1200.92 732.752C1196.87 732.752 1193.84 733.627 1191.84 735.376C1189.87 737.083 1188.89 739.408 1188.89 742.352C1188.89 744.229 1189.49 745.787 1190.68 747.024C1191.88 748.261 1193.44 749.328 1195.36 750.224C1197.32 751.12 1199.54 751.952 1202.01 752.72C1204.53 753.445 1207.09 754.277 1209.69 755.216C1212.29 756.112 1214.83 757.179 1217.31 758.416C1219.82 759.653 1222.04 761.232 1223.96 763.152C1225.93 765.072 1227.5 767.419 1228.7 770.192C1229.89 772.923 1230.49 776.229 1230.49 780.112C1230.49 784.421 1229.74 788.453 1228.25 792.208C1226.76 795.963 1224.58 799.248 1221.72 802.064C1218.91 804.837 1215.41 807.035 1211.23 808.656C1207.09 810.235 1202.37 811.024 1197.08 811.024C1194.18 811.024 1191.22 810.725 1188.19 810.128C1185.2 809.531 1182.3 808.699 1179.48 807.632C1176.67 806.523 1174.02 805.221 1171.55 803.728C1169.07 802.235 1166.92 800.571 1165.08 798.736L1171.48 788.624C1171.95 787.856 1172.61 787.237 1173.47 786.768C1174.32 786.299 1175.24 786.064 1176.22 786.064C1177.5 786.064 1178.78 786.469 1180.06 787.28C1181.38 788.091 1182.85 788.987 1184.48 789.968C1186.14 790.949 1188.04 791.845 1190.17 792.656C1192.3 793.467 1194.82 793.872 1197.72 793.872C1201.65 793.872 1204.7 793.019 1206.88 791.312C1209.05 789.563 1210.14 786.811 1210.14 783.056C1210.14 780.88 1209.54 779.109 1208.35 777.744C1207.15 776.379 1205.57 775.248 1203.61 774.352C1201.69 773.456 1199.49 772.667 1197.02 771.984C1194.54 771.301 1192.01 770.555 1189.4 769.744C1186.8 768.891 1184.26 767.867 1181.79 766.672C1179.31 765.435 1177.09 763.835 1175.13 761.872C1173.21 759.867 1171.65 757.392 1170.46 754.448C1169.26 751.461 1168.67 747.792 1168.67 743.44C1168.67 739.941 1169.37 736.528 1170.78 733.2C1172.19 729.872 1174.26 726.907 1176.99 724.304C1179.72 721.701 1183.07 719.632 1187.04 718.096C1191 716.517 1195.55 715.728 1200.67 715.728C1203.53 715.728 1206.3 715.963 1208.99 716.432C1211.72 716.859 1214.3 717.52 1216.73 718.416C1219.16 719.269 1221.42 720.315 1223.52 721.552C1225.65 722.747 1227.55 724.112 1229.21 725.648L1223.84 735.696ZM1239.96 763.088H1274.52V779.088H1239.96V763.088ZM1344.83 716.752V733.904H1318.59V810H1296.96V733.904H1270.72V716.752H1344.83ZM1413.77 716.752V733.392H1375.5V755.152H1404.81V771.152H1375.5V793.36H1413.77V810H1353.74V716.752H1413.77ZM1473.8 767.376C1474.65 768.997 1475.46 770.683 1476.23 772.432C1477.04 774.181 1477.81 775.973 1478.53 777.808C1479.26 775.931 1480.03 774.117 1480.84 772.368C1481.65 770.576 1482.48 768.848 1483.33 767.184L1507.27 720.08C1507.7 719.269 1508.12 718.651 1508.55 718.224C1509.02 717.755 1509.53 717.413 1510.09 717.2C1510.64 716.987 1511.26 716.859 1511.94 716.816C1512.67 716.773 1513.5 716.752 1514.44 716.752H1530.95V810H1511.88V756.368C1511.88 753.765 1512.01 750.949 1512.26 747.92L1487.56 795.856C1486.79 797.349 1485.74 798.48 1484.42 799.248C1483.14 800.016 1481.67 800.4 1480.01 800.4H1477.06C1475.4 800.4 1473.9 800.016 1472.58 799.248C1471.3 798.48 1470.28 797.349 1469.51 795.856L1444.68 747.856C1444.85 749.349 1444.98 750.843 1445.06 752.336C1445.15 753.787 1445.19 755.131 1445.19 756.368V810H1426.12V716.752H1442.63C1443.57 716.752 1444.38 716.773 1445.06 716.816C1445.79 716.859 1446.43 716.987 1446.98 717.2C1447.54 717.413 1448.03 717.755 1448.45 718.224C1448.92 718.651 1449.37 719.269 1449.8 720.08L1473.8 767.376ZM1568 778.832V810H1546.37V716.752H1579.26C1585.83 716.752 1591.47 717.541 1596.16 719.12C1600.9 720.656 1604.78 722.789 1607.81 725.52C1610.88 728.251 1613.14 731.472 1614.59 735.184C1616.04 738.896 1616.77 742.907 1616.77 747.216C1616.77 751.867 1616.02 756.133 1614.53 760.016C1613.03 763.899 1610.75 767.227 1607.68 770C1604.61 772.773 1600.7 774.949 1595.97 776.528C1591.27 778.064 1585.71 778.832 1579.26 778.832H1568ZM1568 762.512H1579.26C1584.9 762.512 1588.95 761.168 1591.42 758.48C1593.9 755.792 1595.14 752.037 1595.14 747.216C1595.14 745.083 1594.82 743.141 1594.18 741.392C1593.54 739.643 1592.55 738.149 1591.23 736.912C1589.95 735.632 1588.31 734.651 1586.3 733.968C1584.34 733.285 1581.99 732.944 1579.26 732.944H1568V762.512ZM1649.62 792.72H1684.18V810H1627.99V716.752H1649.62V792.72ZM1781.15 810H1764.38C1762.51 810 1760.95 809.573 1759.71 808.72C1758.52 807.824 1757.68 806.693 1757.22 805.328L1751.71 789.072H1716.26L1710.75 805.328C1710.32 806.523 1709.49 807.611 1708.26 808.592C1707.02 809.531 1705.5 810 1703.71 810H1686.82L1722.91 716.752H1745.06L1781.15 810ZM1721.25 774.352H1746.72L1738.14 748.816C1737.59 747.195 1736.93 745.296 1736.16 743.12C1735.43 740.901 1734.71 738.512 1733.98 735.952C1733.3 738.555 1732.6 740.965 1731.87 743.184C1731.15 745.403 1730.46 747.323 1729.82 748.944L1721.25 774.352ZM1846.2 716.752V733.904H1819.96V810H1798.33V733.904H1772.09V716.752H1846.2ZM1915.15 716.752V733.392H1876.88V755.152H1906.19V771.152H1876.88V793.36H1915.15V810H1855.12V716.752H1915.15Z" fill="#50A456"/>
<rect x="1675" y="170" width="4" height="30" fill="url(#paint0_linear_931_5675)"/>
<g filter="url(#filter0_d_931_5675)">
<circle cx="1677" cy="202" r="3" fill="white"/>
</g>
<rect x="241" y="170" width="4" height="30" fill="url(#paint1_linear_931_5675)"/>
<g filter="url(#filter1_d_931_5675)">
<circle cx="243" cy="202" r="3" fill="white"/>
</g>
<rect x="521" y="668" width="4" height="30" fill="url(#paint2_linear_931_5675)"/>
<g filter="url(#filter2_d_931_5675)">
<circle cx="523" cy="700" r="3" fill="white"/>
</g>
<circle cx="483" cy="81" r="3" fill="white"/>
<circle cx="1810" cy="476" r="10" fill="white"/>
<circle cx="110" cy="476" r="10" fill="white"/>
<circle cx="1437" cy="81" r="3" fill="white"/>
<circle cx="406" cy="352" r="6" fill="white"/>
<defs>
<filter id="filter0_d_931_5675" x="1662" y="187" width="30" height="30" filterUnits="userSpaceOnUse" color-interpolation-filters="sRGB">
<feFlood flood-opacity="0" result="BackgroundImageFix"/>
<feColorMatrix in="SourceAlpha" type="matrix" values="0 0 0 0 0 0 0 0 0 0 0 0 0 0 0 0 0 0 127 0" result="hardAlpha"/>
<feMorphology radius="2" operator="dilate" in="SourceAlpha" result="effect1_dropShadow_931_5675"/>
<feOffset/>
<feGaussianBlur stdDeviation="5"/>
<feComposite in2="hardAlpha" operator="out"/>
<feColorMatrix type="matrix" values="0 0 0 0 1 0 0 0 0 1 0 0 0 0 1 0 0 0 1 0"/>
<feBlend mode="normal" in2="BackgroundImageFix" result="effect1_dropShadow_931_5675"/>
<feBlend mode="normal" in="SourceGraphic" in2="effect1_dropShadow_931_5675" result="shape"/>
</filter>
<filter id="filter1_d_931_5675" x="228" y="187" width="30" height="30" filterUnits="userSpaceOnUse" color-interpolation-filters="sRGB">
<feFlood flood-opacity="0" result="BackgroundImageFix"/>
<feColorMatrix in="SourceAlpha" type="matrix" values="0 0 0 0 0 0 0 0 0 0 0 0 0 0 0 0 0 0 127 0" result="hardAlpha"/>
<feMorphology radius="2" operator="dilate" in="SourceAlpha" result="effect1_dropShadow_931_5675"/>
<feOffset/>
<feGaussianBlur stdDeviation="5"/>
<feComposite in2="hardAlpha" operator="out"/>
<feColorMatrix type="matrix" values="0 0 0 0 1 0 0 0 0 1 0 0 0 0 1 0 0 0 1 0"/>
<feBlend mode="normal" in2="BackgroundImageFix" result="effect1_dropShadow_931_5675"/>
<feBlend mode="normal" in="SourceGraphic" in2="effect1_dropShadow_931_5675" result="shape"/>
</filter>
<filter id="filter2_d_931_5675" x="508" y="685" width="30" height="30" filterUnits="userSpaceOnUse" color-interpolation-filters="sRGB">
<feFlood flood-opacity="0" result="BackgroundImageFix"/>
<feColorMatrix in="SourceAlpha" type="matrix" values="0 0 0 0 0 0 0 0 0 0 0 0 0 0 0 0 0 0 127 0" result="hardAlpha"/>
<feMorphology radius="2" operator="dilate" in="SourceAlpha" result="effect1_dropShadow_931_5675"/>
<feOffset/>
<feGaussianBlur stdDeviation="5"/>
<feComposite in2="hardAlpha" operator="out"/>
<feColorMatrix type="matrix" values="0 0 0 0 1 0 0 0 0 1 0 0 0 0 1 0 0 0 1 0"/>
<feBlend mode="normal" in2="BackgroundImageFix" result="effect1_dropShadow_931_5675"/>
<feBlend mode="normal" in="SourceGraphic" in2="effect1_dropShadow_931_5675" result="shape"/>
</filter>
<linearGradient id="paint0_linear_931_5675" x1="1677" y1="170" x2="1677" y2="200" gradientUnits="userSpaceOnUse">
<stop stop-color="white" stop-opacity="0"/>
<stop offset="1" stop-color="white" stop-opacity="0.6"/>
</linearGradient>
<linearGradient id="paint1_linear_931_5675" x1="243" y1="170" x2="243" y2="200" gradientUnits="userSpaceOnUse">
<stop stop-color="white" stop-opacity="0"/>
<stop offset="1" stop-color="white" stop-opacity="0.6"/>
</linearGradient>
<linearGradient id="paint2_linear_931_5675" x1="523" y1="668" x2="523" y2="698" gradientUnits="userSpaceOnUse">
<stop stop-color="white" stop-opacity="0"/>
<stop offset="1" stop-color="white" stop-opacity="0.6"/>
</linearGradient>
</defs>
</svg>
