<svg width="18" height="18" viewBox="0 0 18 18" fill="none" xmlns="http://www.w3.org/2000/svg">
<path d="M17.4633 3.05775C17.247 2.80458 16.9762 2.60096 16.6702 2.46136C16.3642 2.32176 16.0304 2.2496 15.6926 2.25H3.26153L3.22924 1.98675C3.16316 1.43956 2.89354 0.935049 2.47152 0.568858C2.04949 0.202667 1.50439 0.000256345 0.939555 0L0.768867 0C0.564951 0 0.369386 0.0790176 0.225196 0.21967C0.0810054 0.360322 0 0.551088 0 0.75C0 0.948912 0.0810054 1.13968 0.225196 1.28033C0.369386 1.42098 0.564951 1.5 0.768867 1.5H0.939555C1.12788 1.50002 1.30964 1.56747 1.45037 1.68954C1.5911 1.81161 1.68101 1.97981 1.70304 2.16225L2.761 10.9373C2.87084 11.8498 3.32033 12.6913 4.02418 13.302C4.72802 13.9127 5.63722 14.25 6.5792 14.25H14.6085C14.8124 14.25 15.008 14.171 15.1521 14.0303C15.2963 13.8897 15.3773 13.6989 15.3773 13.5C15.3773 13.3011 15.2963 13.1103 15.1521 12.9697C15.008 12.829 14.8124 12.75 14.6085 12.75H6.5792C6.10331 12.7487 5.63949 12.6038 5.25131 12.3353C4.86314 12.0668 4.56962 11.6877 4.41099 11.25H13.5759C14.4772 11.2501 15.3499 10.9412 16.0415 10.3773C16.7331 9.81348 17.1996 9.03052 17.3595 8.16525L17.963 4.89975C18.0233 4.57576 18.0097 4.2428 17.9234 3.92448C17.837 3.60616 17.6799 3.31026 17.4633 3.05775Z" fill="url(#paint0_linear_635_114)"/>
<path d="M5.38246 18C6.23173 18 6.92019 17.3284 6.92019 16.5C6.92019 15.6716 6.23173 15 5.38246 15C4.53319 15 3.84473 15.6716 3.84473 16.5C3.84473 17.3284 4.53319 18 5.38246 18Z" fill="url(#paint1_linear_635_114)"/>
<path d="M13.0709 18C13.9202 18 14.6087 17.3284 14.6087 16.5C14.6087 15.6716 13.9202 15 13.0709 15C12.2217 15 11.5332 15.6716 11.5332 16.5C11.5332 17.3284 12.2217 18 13.0709 18Z" fill="url(#paint2_linear_635_114)"/>
<defs>
<linearGradient id="paint0_linear_635_114" x1="0" y1="0" x2="13.8698" y2="17.5197" gradientUnits="userSpaceOnUse">
<stop stop-color="#75B1FF"/>
<stop offset="1" stop-color="#056BF1"/>
</linearGradient>
<linearGradient id="paint1_linear_635_114" x1="3.84473" y1="15" x2="6.84381" y2="18.0745" gradientUnits="userSpaceOnUse">
<stop stop-color="#75B1FF"/>
<stop offset="1" stop-color="#056BF1"/>
</linearGradient>
<linearGradient id="paint2_linear_635_114" x1="11.5332" y1="15" x2="14.5323" y2="18.0745" gradientUnits="userSpaceOnUse">
<stop stop-color="#75B1FF"/>
<stop offset="1" stop-color="#056BF1"/>
</linearGradient>
</defs>
</svg>
