<svg width="52" height="52" viewBox="0 0 52 52" fill="none" xmlns="http://www.w3.org/2000/svg">
<rect opacity="0.1" width="52" height="52" rx="26" fill="#0BB55C"/>
<g clip-path="url(#clip0_1133_357)">
<path d="M22.6667 16C21.562 16.0013 20.503 16.4407 19.7218 17.2218C18.9407 18.003 18.5013 19.062 18.5 20.1667V35.1667C18.5001 35.3182 18.5416 35.4669 18.6199 35.5967C18.6982 35.7264 18.8105 35.8324 18.9445 35.9031C19.0786 35.9738 19.2294 36.0066 19.3807 35.998C19.5321 35.9894 19.6782 35.9396 19.8033 35.8542L21.5583 34.655L23.3133 35.8542C23.452 35.9491 23.6161 35.9999 23.7842 35.9999C23.9522 35.9999 24.1163 35.9491 24.255 35.8542L26.005 34.655L27.755 35.8542C27.8937 35.9493 28.058 36.0002 28.2262 36.0002C28.3945 36.0002 28.5588 35.9493 28.6975 35.8542L30.4475 34.6558L32.1975 35.8533C32.3226 35.9385 32.4685 35.9881 32.6197 35.9966C32.7708 36.0052 32.9214 35.9724 33.0553 35.9018C33.1892 35.8312 33.3013 35.7255 33.3797 35.5959C33.458 35.4664 33.4996 35.318 33.5 35.1667V20.1667C33.4987 19.062 33.0593 18.003 32.2781 17.2218C31.497 16.4407 30.438 16.0013 29.3333 16H22.6667ZM27.6667 27.6667H22.6667C22.4457 27.6667 22.2337 27.5789 22.0774 27.4226C21.9211 27.2663 21.8333 27.0543 21.8333 26.8333C21.8333 26.6123 21.9211 26.4004 22.0774 26.2441C22.2337 26.0878 22.4457 26 22.6667 26H27.6667C27.8877 26 28.0996 26.0878 28.2559 26.2441C28.4122 26.4004 28.5 26.6123 28.5 26.8333C28.5 27.0543 28.4122 27.2663 28.2559 27.4226C28.0996 27.5789 27.8877 27.6667 27.6667 27.6667ZM30.1667 23.5C30.1667 23.721 30.0789 23.933 29.9226 24.0893C29.7663 24.2455 29.5543 24.3333 29.3333 24.3333H22.6667C22.4457 24.3333 22.2337 24.2455 22.0774 24.0893C21.9211 23.933 21.8333 23.721 21.8333 23.5C21.8333 23.279 21.9211 23.067 22.0774 22.9107C22.2337 22.7545 22.4457 22.6667 22.6667 22.6667H29.3333C29.5543 22.6667 29.7663 22.7545 29.9226 22.9107C30.0789 23.067 30.1667 23.279 30.1667 23.5Z" fill="url(#paint0_linear_1133_357)"/>
</g>
<defs>
<linearGradient id="paint0_linear_1133_357" x1="18.5" y1="16" x2="37.7001" y2="30.3999" gradientUnits="userSpaceOnUse">
<stop stop-color="#67E6A3"/>
<stop offset="1" stop-color="#08994D"/>
</linearGradient>
<clipPath id="clip0_1133_357">
<rect width="20" height="20" fill="white" transform="translate(16 16)"/>
</clipPath>
</defs>
</svg>
