<svg width="30" height="30" viewBox="0 0 30 30" fill="none" xmlns="http://www.w3.org/2000/svg">
<path d="M17.7262 0.258621C17.546 0.22545 17.3607 0.232317 17.1834 0.278735C17.0061 0.325154 16.8412 0.409989 16.7003 0.527231C16.5595 0.644474 16.4461 0.791254 16.3683 0.957177C16.2905 1.1231 16.2501 1.3041 16.25 1.48737V5.08612C14.1646 4.81111 12.0454 5.19628 10.1902 6.18755C8.33491 7.17881 6.83679 8.72635 5.90624 10.6128C4.9757 12.4992 4.65948 14.6298 5.00201 16.7052C5.34454 18.7806 6.32861 20.6965 7.81599 22.1839C9.30336 23.6713 11.2193 24.6553 13.2947 24.9979C15.3701 25.3404 17.5006 25.0242 19.3871 24.0936C21.2735 23.1631 22.8211 21.665 23.8123 19.8097C24.8036 17.9545 25.1888 15.8353 24.9137 13.7499H28.5212C28.7045 13.7498 28.8855 13.7094 29.0514 13.6316C29.2174 13.5538 29.3641 13.4404 29.4814 13.2995C29.5986 13.1587 29.6835 12.9938 29.7299 12.8165C29.7763 12.6392 29.7832 12.4539 29.75 12.2736C29.1889 9.29301 27.7409 6.55129 25.5954 4.40744C23.45 2.2636 20.7073 0.817544 17.7262 0.258621ZM20 16.2499H17.1537C16.9628 16.5814 16.6982 16.8645 16.3803 17.0774C16.0624 17.2902 15.6998 17.427 15.3205 17.4771C14.9412 17.5273 14.5555 17.4895 14.1932 17.3666C13.8309 17.2437 13.5018 17.0391 13.2313 16.7686C12.9607 16.4981 12.7561 16.1689 12.6333 15.8066C12.5104 15.4443 12.4726 15.0586 12.5227 14.6794C12.5729 14.3001 12.7097 13.9375 12.9225 13.6196C13.1353 13.3017 13.4185 13.037 13.75 12.8461V8.74987C13.75 8.41835 13.8817 8.10041 14.1161 7.86599C14.3505 7.63157 14.6685 7.49987 15 7.49987C15.3315 7.49987 15.6495 7.63157 15.8839 7.86599C16.1183 8.10041 16.25 8.41835 16.25 8.74987V12.8461C16.6245 13.064 16.9359 13.3754 17.1537 13.7499H20C20.3315 13.7499 20.6495 13.8816 20.8839 14.116C21.1183 14.3504 21.25 14.6684 21.25 14.9999C21.25 15.3314 21.1183 15.6493 20.8839 15.8838C20.6495 16.1182 20.3315 16.2499 20 16.2499ZM3.73249 6.20987C3.97514 6.256 4.19868 6.37298 4.37489 6.54605C4.55111 6.71911 4.67211 6.9405 4.72261 7.18227C4.77312 7.42405 4.75086 7.67536 4.65866 7.9045C4.56646 8.13363 4.40845 8.33032 4.20456 8.46972C4.00068 8.60913 3.76006 8.68502 3.51309 8.68779C3.26611 8.69057 3.02385 8.62012 2.81688 8.48534C2.60991 8.35055 2.44751 8.15747 2.35018 7.93047C2.25284 7.70347 2.22494 7.45272 2.26999 7.20987C2.30002 7.04801 2.36172 6.89368 2.45156 6.75573C2.5414 6.61778 2.65759 6.49894 2.79349 6.40602C2.92938 6.31311 3.08228 6.24795 3.24342 6.21429C3.40457 6.18062 3.57077 6.17912 3.73249 6.20987ZM1.73249 11.1936C1.97514 11.2398 2.19868 11.3567 2.37489 11.5298C2.55111 11.7029 2.67211 11.9243 2.72261 12.166C2.77312 12.4078 2.75086 12.6591 2.65866 12.8882C2.56646 13.1174 2.40845 13.3141 2.20456 13.4535C2.00068 13.5929 1.76006 13.6688 1.51309 13.6715C1.26611 13.6743 1.02385 13.6039 0.816882 13.4691C0.609911 13.3343 0.44751 13.1412 0.350177 12.9142C0.252844 12.6872 0.224943 12.4365 0.269994 12.1936C0.300044 12.0321 0.361624 11.8782 0.451214 11.7405C0.540805 11.6028 0.656649 11.4842 0.792124 11.3913C0.927599 11.2984 1.08005 11.2332 1.24076 11.1993C1.40147 11.1653 1.56729 11.1634 1.72874 11.1936H1.73249ZM12.66 27.2786C12.9028 27.3251 13.1264 27.4425 13.3026 27.616C13.4787 27.7896 13.5993 28.0115 13.6493 28.2536C13.6993 28.4957 13.6764 28.7472 13.5834 28.9764C13.4905 29.2055 13.3317 29.4018 13.1271 29.5407C12.9225 29.6795 12.6813 29.7546 12.4341 29.7563C12.1869 29.7581 11.9446 29.6865 11.7381 29.5506C11.5316 29.4147 11.3699 29.2206 11.2737 28.9929C11.1775 28.7651 11.151 28.5139 11.1975 28.2711C11.2599 27.9464 11.4485 27.6596 11.7219 27.4736C11.9953 27.2876 12.3313 27.2175 12.6562 27.2786H12.66ZM7.50999 2.37487C7.75264 2.421 7.97618 2.53798 8.15239 2.71105C8.32861 2.88411 8.44961 3.1055 8.50011 3.34727C8.55062 3.58905 8.52836 3.84036 8.43616 4.06949C8.34396 4.29863 8.18595 4.49532 7.98206 4.63472C7.77818 4.77413 7.53756 4.85002 7.29059 4.85279C7.04361 4.85557 6.80135 4.78512 6.59438 4.65034C6.38741 4.51555 6.22501 4.32247 6.12768 4.09547C6.03034 3.86847 6.00244 3.61772 6.04749 3.37487C6.07752 3.21301 6.13922 3.05868 6.22906 2.92073C6.3189 2.78278 6.43509 2.66394 6.57099 2.57102C6.70688 2.47811 6.85978 2.41295 7.02092 2.37929C7.18207 2.34562 7.34827 2.34412 7.50999 2.37487ZM12.7275 0.261121C12.9697 0.311569 13.1916 0.432784 13.3649 0.60941C13.5382 0.786037 13.6552 1.01013 13.701 1.2533C13.7469 1.49646 13.7195 1.74777 13.6224 1.97537C13.5253 2.20297 13.3628 2.39664 13.1556 2.53183C12.9483 2.66702 12.7056 2.73765 12.4582 2.73478C12.2107 2.73191 11.9697 2.65567 11.7656 2.51571C11.5616 2.37575 11.4036 2.17837 11.3118 1.94857C11.2201 1.71878 11.1985 1.46691 11.25 1.22487C11.3188 0.901494 11.5128 0.618529 11.7897 0.437908C12.0666 0.257286 12.4038 0.19372 12.7275 0.261121ZM0.292494 17.5574C0.338626 17.3147 0.455607 17.0912 0.628672 16.915C0.801736 16.7388 1.02313 16.6178 1.2649 16.5673C1.50667 16.5167 1.75798 16.539 1.98712 16.6312C2.21625 16.7234 2.41294 16.8814 2.55235 17.0853C2.69176 17.2892 2.76764 17.5298 2.77042 17.7768C2.7732 18.0238 2.70275 18.266 2.56796 18.473C2.43318 18.68 2.2401 18.8424 2.01309 18.9397C1.78609 19.037 1.53534 19.0649 1.29249 19.0199C1.13064 18.9898 0.976302 18.9281 0.838355 18.8383C0.700408 18.7485 0.581564 18.6323 0.488647 18.4964C0.39573 18.3605 0.33057 18.2076 0.296909 18.0464C0.263247 17.8853 0.261747 17.7191 0.292494 17.5574ZM2.39374 22.5111C2.43988 22.2685 2.55686 22.0449 2.72992 21.8687C2.90299 21.6925 3.12438 21.5715 3.36615 21.521C3.60792 21.4705 3.85923 21.4928 4.08837 21.585C4.3175 21.6772 4.51419 21.8352 4.6536 22.0391C4.79301 22.2429 4.86889 22.4836 4.87167 22.7305C4.87445 22.9775 4.804 23.2198 4.66921 23.4267C4.53443 23.6337 4.34135 23.7961 4.11434 23.8934C3.88734 23.9908 3.63659 24.0187 3.39374 23.9736C3.23189 23.9436 3.07755 23.8819 2.9396 23.7921C2.80166 23.7022 2.68281 23.586 2.5899 23.4501C2.49698 23.3142 2.43182 23.1613 2.39816 23.0002C2.3645 22.839 2.363 22.6728 2.39374 22.5111ZM6.20874 26.2499C6.25488 26.0072 6.37186 25.7837 6.54492 25.6075C6.71799 25.4313 6.93938 25.3103 7.18115 25.2598C7.42292 25.2092 7.67423 25.2315 7.90337 25.3237C8.1325 25.4159 8.32919 25.5739 8.4686 25.7778C8.60801 25.9817 8.68389 26.2223 8.68667 26.4693C8.68945 26.7163 8.619 26.9585 8.48421 27.1655C8.34943 27.3725 8.15635 27.5349 7.92934 27.6322C7.70234 27.7295 7.45159 27.7574 7.20874 27.7124C7.04689 27.6823 6.89255 27.6206 6.7546 27.5308C6.61666 27.441 6.49781 27.3248 6.4049 27.1889C6.31198 27.053 6.24682 26.9001 6.21316 26.7389C6.1795 26.5778 6.178 26.4116 6.20874 26.2499ZM26.2675 23.7911C26.0249 23.745 25.8013 23.628 25.6251 23.4549C25.4489 23.2819 25.3279 23.0605 25.2774 22.8187C25.2269 22.5769 25.2491 22.3256 25.3413 22.0965C25.4335 21.8674 25.5915 21.6707 25.7954 21.5313C25.9993 21.3919 26.2399 21.316 26.4869 21.3132C26.7339 21.3104 26.9761 21.3809 27.1831 21.5157C27.3901 21.6504 27.5525 21.8435 27.6498 22.0705C27.7471 22.2975 27.775 22.5483 27.73 22.7911C27.6998 22.9529 27.638 23.1071 27.5481 23.2449C27.4582 23.3827 27.342 23.5014 27.2061 23.5942C27.0703 23.687 26.9174 23.752 26.7563 23.7856C26.5952 23.8192 26.4291 23.8206 26.2675 23.7899V23.7911ZM22.49 27.6249C22.2474 27.5787 22.0238 27.4618 21.8476 27.2887C21.6714 27.1156 21.5504 26.8942 21.4999 26.6525C21.4494 26.4107 21.4716 26.1594 21.5638 25.9302C21.656 25.7011 21.814 25.5044 22.0179 25.365C22.2218 25.2256 22.4624 25.1497 22.7094 25.1469C22.9564 25.1442 23.1986 25.2146 23.4056 25.3494C23.6126 25.4842 23.775 25.6773 23.8723 25.9043C23.9696 26.1313 23.9975 26.382 23.9525 26.6249C23.9225 26.7867 23.8608 26.9411 23.7709 27.079C23.6811 27.217 23.5649 27.3358 23.429 27.4287C23.2931 27.5216 23.1402 27.5868 22.9791 27.6205C22.8179 27.6541 22.6517 27.6556 22.49 27.6249ZM17.5662 29.6949C17.3234 29.6485 17.0998 29.5311 16.9237 29.3577C16.7476 29.1842 16.6269 28.9624 16.5768 28.7203C16.5267 28.4783 16.5495 28.2268 16.6423 27.9977C16.7352 27.7685 16.8939 27.5721 17.0983 27.4332C17.3028 27.2942 17.5439 27.2191 17.7911 27.2171C18.0382 27.2152 18.2805 27.2866 18.4871 27.4223C18.6937 27.558 18.8554 27.7519 18.9519 27.9796C19.0483 28.2072 19.075 28.4583 19.0287 28.7011C18.9655 29.026 18.776 29.3125 18.5019 29.4978C18.2277 29.6832 17.8913 29.7522 17.5662 29.6899V29.6949ZM29.64 17.4999C29.64 17.7471 29.5667 17.9888 29.4293 18.1943C29.292 18.3999 29.0968 18.5601 28.8683 18.6547C28.6399 18.7493 28.3886 18.7741 28.1461 18.7259C27.9037 18.6776 27.6809 18.5586 27.5061 18.3838C27.3313 18.2089 27.2122 17.9862 27.164 17.7437C27.1158 17.5013 27.1405 17.2499 27.2351 17.0215C27.3298 16.7931 27.49 16.5979 27.6955 16.4605C27.9011 16.3232 28.1428 16.2499 28.39 16.2499C28.7215 16.2499 29.0395 16.3816 29.2739 16.616C29.5083 16.8504 29.64 17.1684 29.64 17.4999Z" fill="white"/>
</svg>
