<svg width="30" height="30" viewBox="0 0 30 30" fill="none" xmlns="http://www.w3.org/2000/svg">
<g clip-path="url(#clip0_561_10723)">
<path d="M20 2.5H19.7862C19.5268 1.76936 19.0476 1.13689 18.4145 0.689304C17.7814 0.24172 17.0253 0.000945934 16.25 0L13.75 0C12.9747 0.000945934 12.2186 0.24172 11.5855 0.689304C10.9524 1.13689 10.4732 1.76936 10.2137 2.5H10C8.343 2.50198 6.75445 3.1611 5.58277 4.33277C4.4111 5.50444 3.75198 7.093 3.75 8.75V23.75C3.75198 25.407 4.4111 26.9955 5.58277 28.1672C6.75445 29.3389 8.343 29.998 10 30H20C21.657 29.998 23.2455 29.3389 24.4172 28.1672C25.5889 26.9955 26.248 25.407 26.25 23.75V8.75C26.248 7.093 25.5889 5.50444 24.4172 4.33277C23.2455 3.1611 21.657 2.50198 20 2.5ZM11.25 8.75H13.75V6.25C13.75 5.91848 13.8817 5.60053 14.1161 5.36611C14.3505 5.13169 14.6685 5 15 5C15.3315 5 15.6495 5.13169 15.8839 5.36611C16.1183 5.60053 16.25 5.91848 16.25 6.25V8.75H18.75C19.0815 8.75 19.3995 8.88169 19.6339 9.11611C19.8683 9.35053 20 9.66848 20 10C20 10.3315 19.8683 10.6495 19.6339 10.8839C19.3995 11.1183 19.0815 11.25 18.75 11.25H16.25V13.75C16.25 14.0815 16.1183 14.3995 15.8839 14.6339C15.6495 14.8683 15.3315 15 15 15C14.6685 15 14.3505 14.8683 14.1161 14.6339C13.8817 14.3995 13.75 14.0815 13.75 13.75V11.25H11.25C10.9185 11.25 10.6005 11.1183 10.3661 10.8839C10.1317 10.6495 10 10.3315 10 10C10 9.66848 10.1317 9.35053 10.3661 9.11611C10.6005 8.88169 10.9185 8.75 11.25 8.75ZM15 25H10C9.66848 25 9.35053 24.8683 9.11611 24.6339C8.88169 24.3995 8.75 24.0815 8.75 23.75C8.75 23.4185 8.88169 23.1005 9.11611 22.8661C9.35053 22.6317 9.66848 22.5 10 22.5H15C15.3315 22.5 15.6495 22.6317 15.8839 22.8661C16.1183 23.1005 16.25 23.4185 16.25 23.75C16.25 24.0815 16.1183 24.3995 15.8839 24.6339C15.6495 24.8683 15.3315 25 15 25ZM20 20H10C9.66848 20 9.35053 19.8683 9.11611 19.6339C8.88169 19.3995 8.75 19.0815 8.75 18.75C8.75 18.4185 8.88169 18.1005 9.11611 17.8661C9.35053 17.6317 9.66848 17.5 10 17.5H20C20.3315 17.5 20.6495 17.6317 20.8839 17.8661C21.1183 18.1005 21.25 18.4185 21.25 18.75C21.25 19.0815 21.1183 19.3995 20.8839 19.6339C20.6495 19.8683 20.3315 20 20 20Z" fill="white"/>
</g>
<defs>
<clipPath id="clip0_561_10723">
<rect width="30" height="30" fill="white"/>
</clipPath>
</defs>
</svg>
