<svg width="52" height="52" viewBox="0 0 52 52" fill="none" xmlns="http://www.w3.org/2000/svg">
<rect opacity="0.1" width="52" height="52" rx="26" fill="#814AF8"/>
<g clip-path="url(#clip0_1133_349)">
<path d="M22.25 26.8333C21.5083 26.8333 20.7833 26.6134 20.1666 26.2013C19.5499 25.7893 19.0693 25.2036 18.7855 24.5184C18.5016 23.8332 18.4274 23.0792 18.5721 22.3517C18.7167 21.6243 19.0739 20.9561 19.5983 20.4317C20.1228 19.9072 20.791 19.5501 21.5184 19.4054C22.2458 19.2607 22.9998 19.335 23.6851 19.6188C24.3703 19.9026 24.956 20.3833 25.368 20.9999C25.7801 21.6166 26 22.3417 26 23.0833C25.9989 24.0776 25.6035 25.0307 24.9004 25.7338C24.1974 26.4368 23.2442 26.8322 22.25 26.8333ZM27.6667 36H16.8333C16.6123 36 16.4004 35.9122 16.2441 35.7559C16.0878 35.5996 16 35.3877 16 35.1667V34.75C16 33.0924 16.6585 31.5027 17.8306 30.3306C19.0027 29.1585 20.5924 28.5 22.25 28.5C23.9076 28.5 25.4973 29.1585 26.6694 30.3306C27.8415 31.5027 28.5 33.0924 28.5 34.75V35.1667C28.5 35.3877 28.4122 35.5996 28.2559 35.7559C28.0996 35.9122 27.8877 36 27.6667 36ZM30.5833 23.5C29.8417 23.5 29.1166 23.2801 28.4999 22.868C27.8833 22.456 27.4026 21.8703 27.1188 21.1851C26.835 20.4998 26.7607 19.7458 26.9054 19.0184C27.0501 18.291 27.4072 17.6228 27.9317 17.0984C28.4561 16.5739 29.1243 16.2168 29.8517 16.0721C30.5792 15.9274 31.3332 16.0016 32.0184 16.2855C32.7036 16.5693 33.2893 17.0499 33.7013 17.6666C34.1134 18.2833 34.3333 19.0083 34.3333 19.75C34.3322 20.7442 33.9368 21.6974 33.2338 22.4004C32.5307 23.1035 31.5776 23.4989 30.5833 23.5ZM29.3992 25.1842C28.623 25.2883 27.8767 25.5516 27.2071 25.9575C26.5374 26.3635 25.9588 26.9034 25.5075 27.5433C27.3749 28.3914 28.8422 29.9285 29.6025 31.8333H35.1667C35.3877 31.8333 35.5996 31.7455 35.7559 31.5893C35.9122 31.433 36 31.221 36 31V30.9683C35.9991 30.1377 35.8211 29.3167 35.4777 28.5604C35.1344 27.804 34.6336 27.1296 34.0088 26.5821C33.3841 26.0347 32.6498 25.6268 31.8549 25.3857C31.0599 25.1447 30.2227 25.0759 29.3992 25.1842Z" fill="url(#paint0_linear_1133_349)"/>
</g>
<defs>
<linearGradient id="paint0_linear_1133_349" x1="16" y1="16" x2="36" y2="36" gradientUnits="userSpaceOnUse">
<stop stop-color="#B593FF"/>
<stop offset="1" stop-color="#6726F2"/>
</linearGradient>
<clipPath id="clip0_1133_349">
<rect width="20" height="20" fill="white" transform="translate(16 16)"/>
</clipPath>
</defs>
</svg>
