<svg width="286" height="184" viewBox="0 0 286 184" fill="none" xmlns="http://www.w3.org/2000/svg">
<path d="M10 5L0 0.226497V11.7735L10 7V5ZM280 105.72H281V105.711L281 105.702L280 105.72ZM280 184L285.773 174H274.227L280 184ZM5.98664 7H9.97774V5H5.98664V7ZM13.9688 7H17.9599V5H13.9688V7ZM21.951 7H25.9421V5H21.951V7ZM29.9332 7H33.9243V5H29.9332V7ZM37.9154 7H41.9065V5H37.9154V7ZM45.8976 7H49.8887V5H45.8976V7ZM53.8798 7H57.8709V5H53.8798V7ZM61.862 7H65.8531V5H61.862V7ZM69.8442 7H73.8353V5H69.8442V7ZM77.8264 7H81.8175V5H77.8264V7ZM85.8086 7H89.7997V5H85.8086V7ZM93.7908 7H97.7819V5H93.7908V7ZM101.773 7H105.764V5H101.773V7ZM109.755 7H113.746V5H109.755V7ZM117.737 7H121.728V5H117.737V7ZM125.72 7H129.711V5H125.72V7ZM133.702 7H137.693V5H133.702V7ZM141.684 7H145.675V5H141.684V7ZM149.666 7H153.657V5H149.666V7ZM157.648 7H161.639V5H157.648V7ZM165.63 7H169.622V5H165.63V7ZM173.613 7H175.608V5H173.613V7ZM175.608 7C176.291 7 176.97 7.00463 177.645 7.01384L177.672 5.01402C176.988 5.00469 176.3 5 175.608 5V7ZM181.642 7.12347C182.995 7.17957 184.331 7.25452 185.649 7.3478L185.79 5.35279C184.452 5.25811 183.097 5.18208 181.724 5.12519L181.642 7.12347ZM189.613 7.68844C190.964 7.82545 192.297 7.98224 193.61 8.1582L193.876 6.17591C192.541 5.99707 191.187 5.83779 189.814 5.69864L189.613 7.68844ZM197.54 8.75077C198.876 8.97519 200.192 9.21999 201.488 9.48448L201.888 7.5249C200.569 7.2557 199.23 7.00664 197.871 6.77839L197.54 8.75077ZM205.387 10.354C206.69 10.6698 207.972 11.006 209.233 11.362L209.776 9.43725C208.491 9.07444 207.185 8.73184 205.858 8.41023L205.387 10.354ZM213.073 12.5279C214.351 12.9436 215.606 13.3802 216.838 13.8367L217.533 11.9613C216.275 11.4954 214.995 11.05 213.692 10.626L213.073 12.5279ZM220.539 15.2955C221.783 15.8162 223.003 16.3579 224.199 16.9195L225.05 15.1092C223.828 14.5354 222.582 13.9822 221.311 13.4504L220.539 15.2955ZM227.771 18.6925C228.956 19.3135 230.116 19.9547 231.251 20.615L232.257 18.8862C231.096 18.2111 229.91 17.5556 228.699 16.9209L227.771 18.6925ZM234.658 22.6999C235.786 23.426 236.889 24.1715 237.965 24.9351L239.122 23.3039C238.021 22.5229 236.894 21.7605 235.74 21.018L234.658 22.6999ZM241.162 27.3135C242.216 28.1354 243.244 28.9752 244.245 29.8315L245.545 28.3115C244.521 27.4358 243.47 26.5769 242.392 25.7363L241.162 27.3135ZM247.218 32.4921C248.195 33.4074 249.146 34.3389 250.07 35.285L251.501 33.8875C250.556 32.9204 249.584 31.9681 248.585 31.0321L247.218 32.4921ZM252.794 38.1993C253.686 39.1958 254.55 40.206 255.388 41.2283L256.935 39.9605C256.079 38.9163 255.196 37.8842 254.285 36.866L252.794 38.1993ZM257.849 44.3646C258.652 45.4342 259.429 46.5149 260.179 47.6048L261.826 46.4709C261.061 45.3586 260.268 44.2555 259.448 43.1635L257.849 44.3646ZM262.377 50.9419C263.091 52.0752 263.778 53.2164 264.439 54.3637L266.172 53.3652C265.498 52.1955 264.797 51.0317 264.069 49.8756L262.377 50.9419ZM266.366 57.8633C266.99 59.0497 267.588 60.2404 268.159 61.4335L269.963 60.5699C269.381 59.3545 268.772 58.1413 268.137 56.9323L266.366 57.8633ZM269.817 65.0678C270.352 66.2989 270.86 67.5303 271.342 68.7599L273.204 68.0298C272.713 66.7782 272.196 65.5246 271.652 64.2711L269.817 65.0678ZM272.734 72.5039C273.181 73.7736 273.6 75.0389 273.994 76.2974L275.903 75.7001C275.502 74.4197 275.075 73.1322 274.621 71.8402L272.734 72.5039ZM275.122 80.1354C275.481 81.4381 275.812 82.7304 276.116 84.0095L278.062 83.5463C277.752 82.2449 277.415 80.9301 277.051 79.6049L275.122 80.1354ZM276.974 87.9143C277.241 89.2438 277.48 90.5549 277.691 91.8443L279.665 91.5205C279.45 90.2075 279.207 88.8728 278.934 87.5198L276.974 87.9143ZM278.265 95.7966C278.436 97.1555 278.576 98.4839 278.686 99.7772L280.679 99.6068C280.566 98.2866 280.424 96.9318 280.249 95.5469L278.265 95.7966ZM278.941 103.768C278.969 104.437 278.989 105.094 279 105.738L281 105.702C280.988 105.042 280.968 104.37 280.94 103.685L278.941 103.768ZM279 105.72V107.677H281V105.72H279ZM279 111.591V115.505H281V111.591H279ZM279 119.419V123.333H281V119.419H279ZM279 127.247V131.161H281V127.247H279ZM279 135.075V138.989H281V135.075H279ZM279 142.903V146.817H281V142.903H279ZM279 150.731V154.645H281V150.731H279ZM279 158.559V162.473H281V158.559H279ZM279 166.387V170.301H281V166.387H279ZM279 174.215V178.129H281V174.215H279Z" fill="#55B05C"/>
</svg>
